1358  3  0  0
   0    0.12593065202236176  0.7179312705993652  1.140273928642273
   1    -1.5656381845474243  1.9692624807357788  -0.06004401668906212
   2    -1.305494785308838  -0.288745254278183  0.8096343278884888
   3    0.03789112716913223  -0.2806536555290222  -0.4901304841041565
   4    1.1249780654907227  0.014971277676522732  0.10440711677074432
   5    0.22805631160736084  1.4091731309890747  -0.27814608812332153
   6    -1.5038567781448364  1.168651819229126  0.7634565830230713
   7    0.38472819328308105  -0.2590719759464264  0.837895393371582
   8    -0.4452061057090759  0.4600665271282196  -0.7764168381690979
   9    0.24960346519947052  1.5662673711776733  0.5334509015083313
   10    -1.0811692476272583  0.07488826662302017  -0.11276555061340332
   11    -1.0644971132278442  0.20748171210289001  0.5419432520866394
   12    -1.5831669569015503  0.47836074233055115  -0.08316446840763092
   13    0.7136332988739014  0.799119770526886  -0.33022427558898926
   14    -0.9496591687202454  -0.327894389629364  -0.30700409412384033
   15    0.8285574913024902  1.096509575843811  0.13105423748493195
   16    -0.9771548509597778  1.5794706344604492  -0.036279015243053436
   17    -0.907055675983429  1.4490680694580078  0.5087332129478455
   18    -1.016584873199463  2.0088133811950684  0.2567570209503174
   19    -1.6215468645095825  1.5608534812927246  1.0664143562316895
   20    -1.7405364513397217  1.4288783073425293  -0.03833751007914543
   21    0.6966544389724731  0.2365897297859192  0.7812050580978394
   22    -1.7650216817855835  0.8415524363517761  0.49046990275382996
   23    -0.0251223836094141  0.05330605432391167  1.0984669923782349
   24    0.6821492910385132  -0.28963854908943176  0.22057104110717773
   25    0.5545071363449097  1.173592448234558  0.7459563612937927
   26    -1.8268228769302368  2.0044543743133545  0.3091656267642975
   27    -1.8280715942382812  1.4030799865722656  0.8926020264625549
   28    -0.5313786268234253  0.8686347007751465  0.904447615146637
   29    -1.4302573204040527  0.47012919187545776  0.7177116274833679
   30    -1.1695982217788696  2.0690836906433105  0.6270835995674133
   31    0.09018033742904663  0.8945143222808838  -0.6261138916015625
   32    0.9505058526992798  0.42302462458610535  0.08968181908130646
   33    -1.0328285694122314  1.8959535360336304  -0.014219189062714577
   34    -0.3501306176185608  2.7138607501983643  -0.4773946702480316
   35    -0.34340566396713257  2.2290830612182617  -0.13742327690124512
   36    -0.37046369910240173  2.7430498600006104  -0.35263311862945557
   37    -0.15606948733329773  0.050098635256290436  -0.6544610857963562
   38    0.4350791275501251  0.0580233633518219  -0.514662504196167
   39    -1.0608620643615723  0.9759898781776428  -0.44565755128860474
   40    -0.6549765467643738  0.026227127760648727  -0.20692245662212372
   41    -1.3387092351913452  -0.20763283967971802  -0.12362472712993622
   42    -0.5721080303192139  0.09742406755685806  0.7166979908943176
   43    -0.4591659903526306  -0.2652735114097595  1.0849990844726562
   44    0.08058030158281326  1.6214673519134521  0.05117743834853172
   45    -1.2665597200393677  2.02133846282959  -0.05970650538802147
   46    -1.1898167133331299  1.7998310327529907  -0.11288824677467346
   47    -1.4489595890045166  2.01566219329834  -0.8382248878479004
   48    -1.2147032022476196  2.450395345687866  -1.243283987045288
   49    -1.424007773399353  2.350574254989624  -0.9662039279937744
   50    0.8784212470054626  0.3712206184864044  0.5033865571022034
   51    1.1440664529800415  0.0603518970310688  0.44120410084724426
   52    -0.6879023313522339  0.7082502245903015  -0.49014467000961304
   53    0.01039950828999281  1.385310411453247  0.7716219425201416
   54    -1.2794705629348755  0.7752587199211121  0.9113369584083557
   55    -1.4795770645141602  2.4633491039276123  -0.7408592104911804
   56    -1.4688607454299927  0.6621004939079285  -0.31405922770500183
   57    -1.4096072912216187  1.3229713439941406  1.0501617193222046
   58    -0.8636940121650696  -0.2665379047393799  -0.5340913534164429
   59    -0.27294930815696716  0.859437108039856  1.1226931810379028
   60    -0.16914407908916473  2.4248087406158447  -0.514799952507019
   61    -1.8738694190979004  1.5947329998016357  0.4426805377006531
   62    0.49386870861053467  1.0019861459732056  -0.39371997117996216
   63    -0.3137207627296448  0.9751421213150024  -0.48661768436431885
   64    -0.7847409248352051  -0.28413039445877075  0.8559079766273499
   65    -0.41849201917648315  0.015910295769572258  0.904026448726654
   66    -0.6211896538734436  1.4574459791183472  -0.10756193846464157
   67    -0.9482318758964539  1.6694401502609253  0.1319168657064438
   68    -1.3051310777664185  0.1903286874294281  0.2872055172920227
   69    0.1461024135351181  -0.30849409103393555  0.7593123912811279
   70    -0.11504760384559631  -0.2177843153476715  -0.2829192578792572
   71    0.6894373893737793  0.04946283996105194  -0.13748008012771606
   72    0.23094971477985382  -0.3136819303035736  -0.20185250043869019
   73    -1.6858086585998535  1.1982338428497314  0.07165630161762238
   74    0.6735154390335083  1.3091028928756714  0.0380045622587204
   75    -0.48657238483428955  -0.21827474236488342  0.7666285634040833
   76    0.7515165209770203  1.1561208963394165  0.5227891206741333
   77    -0.9476626515388489  0.4634886682033539  0.8337072730064392
   78    -1.049665093421936  0.008514373563230038  0.6070955991744995
   79    -0.49038514494895935  0.600009560585022  1.0828278064727783
   80    -0.571068525314331  0.6606237888336182  -0.7160727381706238
   81    -0.5444024205207825  -0.024521617218852043  -0.5018773674964905
   82    0.7735036611557007  0.8556072115898132  0.6863172650337219
   83    1.1381016969680786  0.36263835430145264  0.04870112985372543
   84    0.665735125541687  -0.03979873284697533  0.622797966003418
   85    1.1225242614746094  0.27286240458488464  0.5377682447433472
   86    -1.579725980758667  2.0927369594573975  0.5369545221328735
   87    -1.644315242767334  0.5098140835762024  0.3314379155635834
   88    -1.4475616216659546  1.298443078994751  -0.14966624975204468
   89    -1.7015694379806519  0.8202885985374451  -0.07886473089456558
   90    0.168400377035141  0.5712989568710327  -0.6720640659332275
   91    -0.17754505574703217  2.3757989406585693  -0.42678409814834595
   92    -1.220105528831482  -0.31897056102752686  0.3999479115009308
   93    -1.3939971923828125  -0.14593783020973206  0.1505272388458252
   94    -1.009022831916809  -0.05878129601478577  0.34820491075515747
   95    -0.8615795969963074  -0.02274959720671177  0.7872719168663025
   96    -1.7681005001068115  1.8252772092819214  0.7591027617454529
   97    -0.6177501678466797  -0.22655697166919708  -0.3424649238586426
   98    -0.5620216131210327  1.5134449005126953  0.21872955560684204
   99    -0.6008490324020386  1.3913862705230713  0.5715923309326172
   100    -0.10020478069782257  1.591165542602539  0.5111924409866333
   101    -0.6979553699493408  1.3812426328659058  -0.22722794115543365
   102    0.41582944989204407  0.6409505605697632  1.0197553634643555
   103    -1.522449254989624  2.097682237625122  -0.04801417887210846
   104    -1.6501500606536865  1.1495447158813477  0.5571244955062866
   105    -1.1482696533203125  0.1474524885416031  0.04527197405695915
   106    -0.9925296306610107  0.35820233821868896  -0.277185320854187
   107    -0.27144503593444824  -0.3257257044315338  -0.4788883328437805
   108    -1.5468965768814087  1.68222975730896  1.0442105531692505
   109    -1.2691203355789185  -0.08955904096364975  0.6682479977607727
   110    -0.6593600511550903  -0.17728789150714874  1.0150883197784424
   111    -0.10450829565525055  0.4518355131149292  1.173700213432312
   112    0.6192765235900879  1.3610658645629883  0.4875536859035492
   113    0.9222778081893921  -0.030896933749318123  -0.09025581926107407
   114    -1.568305492401123  0.7131010293960571  0.7414733171463013
   115    -1.1226593255996704  1.9895901679992676  -0.03639279305934906
   116    -1.2124074697494507  2.0942435264587402  0.04666990414261818
   117    -1.402137279510498  1.8215998411178589  -0.16376270353794098
   118    -1.84784734249115  1.593746542930603  0.20204685628414154
   119    -0.8504258990287781  -0.04805106669664383  -0.2284008115530014
   120    -0.7945740222930908  1.0374003648757935  0.8124874830245972
   121    -0.6137372851371765  0.48567280173301697  0.8075830340385437
   122    0.6830845475196838  1.1912810802459717  -0.12989762425422668
   123    -0.4073820412158966  -0.0844164490699768  -0.5597113370895386
   124    -1.333437442779541  2.0675723552703857  -0.9839526414871216
   125    -1.3522042036056519  2.1841297149658203  -1.1201112270355225
   126    -0.6566991806030273  2.4750571250915527  -0.036750733852386475
   127    -1.2518343925476074  1.2636058330535889  0.73873370885849
   128    -1.1946465969085693  1.431958556175232  -0.17462976276874542
   129    -0.3606734871864319  0.7052242159843445  -0.7812978029251099
   130    1.0655251741409302  0.47587257623672485  0.3484894931316376
   131    0.19135744869709015  -0.11756449937820435  0.8987137079238892
   132    -1.4628850221633911  -0.28483060002326965  0.1398012489080429
   133    0.020790712907910347  -0.3056580126285553  0.3608262240886688
   134    0.09782671183347702  -0.20956920087337494  0.678350031375885
   135    -0.06950317323207855  -0.23224231600761414  0.1742982119321823
   136    -0.9884485602378845  1.893052339553833  0.18191862106323242
   137    0.4332820773124695  -0.2655594050884247  -0.05145051330327988
   138    -0.268693208694458  1.0096871852874756  0.8820859789848328
   139    0.11690576374530792  1.2515664100646973  -0.40308618545532227
   140    0.8189969658851624  -0.043198950588703156  0.6497651934623718
   141    0.7661198377609253  0.3705486059188843  -0.2531416714191437
   142    0.2314111441373825  0.2991214394569397  1.0769151449203491
   143    -0.4659973978996277  0.8616654276847839  -0.6781713366508484
   144    -1.187725305557251  0.3986438810825348  -0.29862654209136963
   145    -1.5757946968078613  2.276992082595825  -0.619467556476593
   146    0.8338778614997864  0.8164177536964417  -0.17317277193069458
   147    -1.1649857759475708  -0.10408526659011841  0.8793771862983704
   148    0.5842781066894531  -0.29168495535850525  0.3660818636417389
   149    -0.1370754837989807  1.5216504335403442  -0.16654765605926514
   150    -0.9962199926376343  0.09288150817155838  0.3057083487510681
   151    -1.824690580368042  1.320492148399353  0.14038759469985962
   152    -0.8257994651794434  2.4572954177856445  -0.1553819179534912
   153    -0.5440990328788757  1.0904641151428223  -0.4650159478187561
   154    -1.7666031122207642  0.738197386264801  0.08858021348714828
   155    -1.2116175889968872  2.1184234619140625  0.13996505737304688
   156    -0.8779468536376953  1.1156166791915894  0.823840320110321
   157    -1.0779532194137573  0.7753065228462219  0.9044541716575623
   158    0.42393890023231506  1.5058742761611938  0.026330100372433662
   159    -0.4490750730037689  2.2498769760131836  -0.30678948760032654
   160    -0.2859781086444855  0.2397272139787674  1.0789932012557983
   161    -1.0483487844467163  0.6069955229759216  -0.4166347086429596
   162    1.2180242538452148  0.22223615646362305  0.166227787733078
   163    -1.4932912588119507  2.077406406402588  -0.38261649012565613
   164    -1.06758451461792  -0.2087796926498413  0.9439095258712769
   165    0.8175000548362732  -0.2094493955373764  0.06909989565610886
   166    0.9376876354217529  0.47888171672821045  0.3280535340309143
   167    0.5494570136070251  -0.04541800543665886  -0.3188561201095581
   168    -0.5911973118782043  0.8586534857749939  -0.49344417452812195
   169    -1.6678625345230103  0.6198489665985107  0.5771875381469727
   170    -0.5315225124359131  -0.24482998251914978  0.3140447437763214
   171    -0.12367932498455048  -0.08054773509502411  0.9446313977241516
   172    0.23640215396881104  1.0500268936157227  0.9464883208274841
   173    -1.5568374395370483  2.564450979232788  -1.0069531202316284
   174    -1.2645559310913086  2.593273162841797  -1.1938896179199219
   175    -1.3432836532592773  2.5682713985443115  -1.1988263130187988
   176    -1.3733397722244263  -0.3234366774559021  -0.10953909903764725
   177    0.33755362033843994  -0.3030637800693512  -0.3113188147544861
   178    -1.336655616760254  1.4630820751190186  1.0417340993881226
   179    0.9064862728118896  -0.1729527860879898  0.348175972700119
   180    -0.3257097601890564  -0.30566316843032837  0.8950484395027161
   181    -1.1654435396194458  -0.03365791216492653  0.0296687800437212
   182    0.28017157316207886  0.9346553683280945  -0.4721289873123169
   183    -0.7565500140190125  -0.23349440097808838  -0.15137943625450134
   184    -0.7817880511283875  -0.3259991705417633  0.15362204611301422
   185    -0.7741900086402893  -0.3215765953063965  -0.33079662919044495
   186    -1.2766395807266235  2.2440435886383057  -0.40914618968963623
   187    -0.1185573935508728  1.20615816116333  -0.44660723209381104
   188    -1.2685413360595703  2.044340133666992  -0.6620602011680603
   189    -0.7574610710144043  -0.3259294033050537  -0.608058512210846
   190    -1.8000870943069458  1.6450170278549194  0.8033304214477539
   191    -1.816207766532898  1.7141952514648438  0.365624338388443
   192    -0.92433100938797  0.3168046772480011  0.7806651592254639
   193    -1.1078872680664062  0.6062086820602417  0.8970262408256531
   194    0.24701906740665436  -0.06814947724342346  -0.5170086622238159
   195    -1.4197206497192383  2.1110451221466064  0.07442960143089294
   196    -0.6606279611587524  -0.3118341565132141  0.7674315571784973
   197    0.22197654843330383  0.09058308601379395  1.0457526445388794
   198    -1.1101644039154053  1.753771185874939  0.6265486478805542
   199    -1.4659152030944824  1.235083818435669  0.9611413478851318
   200    0.871016263961792  0.8994050025939941  0.46601277589797974
   201    -0.3039838373661041  1.3982410430908203  0.7132688760757446
   202    -0.7308247089385986  2.2897279262542725  -0.03185759484767914
   203    -1.2740956544876099  1.2553439140319824  -0.2676560580730438
   204    -1.495126485824585  0.9994513392448425  -0.25428351759910583
   205    -1.4275449514389038  2.075289011001587  0.655616283416748
   206    -1.2944746017456055  2.122886896133423  0.4951188862323761
   207    -1.2231534719467163  1.7621968984603882  0.6916564106941223
   208    0.262218713760376  -0.3034256100654602  0.60677570104599
   209    0.16648750007152557  -0.2785293459892273  0.11953329294919968
   210    0.12832213938236237  -0.22636933624744415  -0.14833016693592072
   211    -1.8065450191497803  1.3172171115875244  0.5571324229240417
   212    -0.6112703084945679  -0.32185155153274536  0.27053356170654297
   213    -0.6235372424125671  0.5340175032615662  -0.6603866219520569
   214    -0.36441364884376526  0.6434414982795715  1.15900456905365
   215    0.8197818398475647  0.23333978652954102  0.5825369954109192
   216    -0.7076312303543091  0.5531564950942993  -0.39139100909233093
   217    -0.1532508134841919  1.5964809656143188  0.057557832449674606
   218    0.6706733107566833  0.653043806552887  0.8254347443580627
   219    -1.781996250152588  0.9768294095993042  0.1766345351934433
   220    -0.11635604500770569  -0.3138585090637207  -0.35409975051879883
   221    -0.46004748344421387  2.574885845184326  -0.41552695631980896
   222    -1.739448070526123  1.2341334819793701  0.8335316777229309
   223    -0.9962138533592224  1.7932876348495483  0.34072622656822205
   224    -0.869945228099823  1.5329384803771973  0.3807882070541382
   225    -0.2754720151424408  2.2666499614715576  -0.21977342665195465
   226    0.5565933585166931  -0.048796456307172775  0.7375704050064087
   227    0.5037088990211487  0.6298061609268188  -0.49254727363586426
   228    0.45278963446617126  0.955613911151886  0.9259012341499329
   229    -0.7555442452430725  -0.08440911024808884  -0.4755474030971527
   230    -1.733623743057251  1.1927863359451294  0.3577996492385864
   231    0.18937142193317413  1.6263196468353271  0.35470107197761536
   232    -1.2287733554840088  2.20402193069458  -0.5561608076095581
   233    -1.2405446767807007  2.41001558303833  -1.0526155233383179
   234    1.0524353981018066  0.2259625941514969  -0.06268984079360962
   235    -0.7277607321739197  2.2567341327667236  -0.28644800186157227
   236    0.2326972931623459  1.4662779569625854  0.6784756779670715
   237    0.15301159024238586  1.1407743692398071  0.8214911222457886
   238    -0.23375506699085236  2.6113462448120117  -0.6014369130134583
   239    -0.20439957082271576  2.4500412940979004  -0.5593940615653992
   240    0.016527820378541946  0.27092528343200684  -0.6864457130432129
   241    -1.293972134590149  0.2442494034767151  -0.05668237805366516
   242    -1.5190627574920654  0.4249279499053955  0.5674299597740173
   243    -0.7622266411781311  0.8171324133872986  0.869714617729187
   244    0.4209672510623932  1.296905755996704  -0.26882877945899963
   245    0.013529527932405472  1.635430097579956  0.29681167006492615
   246    0.21751943230628967  -0.2949276566505432  0.8914566040039062
   247    -1.5349681377410889  2.2255451679229736  -0.29155638813972473
   248    -0.501566469669342  0.19150015711784363  -0.6257837414741516
   249    -0.7072975635528564  -0.021608298644423485  0.7780245542526245
   250    -0.5217294096946716  -0.020486842840909958  0.9733505845069885
   251    -0.5215773582458496  2.6088292598724365  -0.15556055307388306
   252    -0.6547659039497375  0.20258229970932007  -0.2542336881160736
   253    -0.5451370477676392  2.193988561630249  0.005882401019334793
   254    1.0178266763687134  0.27821084856987  0.5853338241577148
   255    1.0063209533691406  0.3994157612323761  0.5019405484199524
   256    -1.0771150588989258  -0.3295365869998932  0.20149940252304077
   257    -0.7053464651107788  -0.3098079562187195  0.6590660214424133
   258    -0.7799092531204224  -0.2843867540359497  0.21049928665161133
   259    0.1442451924085617  0.49336758255958557  1.1347771883010864
   260    0.8473902344703674  0.2925403118133545  -0.033001579344272614
   261    -1.7653323411941528  1.3073759078979492  0.9166178107261658
   262    0.5601925253868103  -0.29324808716773987  0.06848696619272232
   263    -1.8533456325531006  1.2864536046981812  0.35568639636039734
   264    0.4379582405090332  0.23756150901317596  -0.5208517909049988
   265    0.8951327204704285  0.7638968825340271  -0.0376841239631176
   266    0.0024030953645706177  -0.30342596769332886  0.13444308936595917
   267    -0.04080221801996231  0.6811760663986206  -0.7467285394668579
   268    -1.3240851163864136  0.5064798593521118  -0.3325978219509125
   269    -1.0871284008026123  1.859692931175232  -0.024409784004092216
   270    -1.246415138244629  1.9222491979599  -0.11503402888774872
   271    -1.3615273237228394  1.9732269048690796  0.7999055981636047
   272    -0.9429986476898193  2.2612013816833496  -0.14989230036735535
   273    -0.9845359921455383  0.935560405254364  0.8942551612854004
   274    -0.4249210059642792  -0.14034076035022736  1.0744088888168335
   275    0.9595889449119568  -0.0815405398607254  0.5114056468009949
   276    -1.2156591415405273  1.4222707748413086  0.8459154963493347
   277    -0.9955227971076965  1.6152516603469849  0.6104467511177063
   278    -1.344692349433899  -0.2934519350528717  0.6262893676757812
   279    -1.5370200872421265  1.5474170446395874  -0.1517593115568161
   280    -0.5880233645439148  -0.22774100303649902  0.6952130198478699
   281    -1.3102378845214844  1.296848177909851  0.9313055276870728
   282    0.13216793537139893  0.9927844405174255  -0.43801283836364746
   283    -0.9980481863021851  1.4197384119033813  -0.25371813774108887
   284    -1.5101540088653564  2.0225110054016113  -0.19622883200645447
   285    0.8870934247970581  0.9503926634788513  0.14221127331256866
   286    0.039008717983961105  0.9120940566062927  1.0850272178649902
   287    -1.4041399955749512  0.23311077058315277  0.21105486154556274
   288    -1.604837417602539  0.4137689173221588  0.2964663803577423
   289    -1.4340366125106812  0.9098779559135437  0.8352642059326172
   290    -1.254355788230896  2.2236039638519287  -0.9107775092124939
   291    0.14724554121494293  0.9752185940742493  0.9762780666351318
   292    -1.7063833475112915  0.9399194121360779  0.5740166902542114
   293    -1.7522339820861816  1.5901445150375366  0.010296576656401157
   294    -1.100061058998108  0.13343560695648193  0.2187119722366333
   295    -0.7227656841278076  0.30453208088874817  0.8305372595787048
   296    -1.8308579921722412  1.9221792221069336  0.5048688054084778
   297    -1.8635280132293701  1.432199239730835  0.19902226328849792
   298    -1.521823763847351  2.355756998062134  -0.5191965699195862
   299    0.7680528163909912  1.1957757472991943  0.2934853732585907
   300    -0.4399927258491516  -0.32094353437423706  -0.41246333718299866
   301    -1.070711612701416  1.2768328189849854  0.7000895738601685
   302    -0.6794596910476685  -0.16665637493133545  -0.6012059450149536
   303    -0.3813709616661072  1.1661170721054077  0.8334923982620239
   304    -0.567793607711792  1.4885303974151611  0.01313201803714037
   305    -0.2963549792766571  1.4677517414093018  -0.13043642044067383
   306    -0.4987771809101105  1.2805453538894653  -0.32759517431259155
   307    1.057741403579712  0.016983220353722572  -0.006744693499058485
   308    0.5766199827194214  1.2952405214309692  0.6351197361946106
   309    -0.5583617091178894  -0.23858092725276947  0.13592736423015594
   310    -0.8428552150726318  -0.32034194469451904  -0.0944986566901207
   311    -1.4038461446762085  2.207848072052002  -0.9491556882858276
   312    -0.8732882142066956  1.5260756015777588  -0.14281274378299713
   313    0.738628625869751  0.5197381973266602  -0.24884247779846191
   314    -1.48790442943573  2.1289310455322266  0.3424503207206726
   315    -0.8365544676780701  -0.32379260659217834  0.5453311800956726
   316    -0.27385541796684265  0.8324169516563416  -0.7322202324867249
   317    -1.1821156740188599  -0.27488481998443604  0.9321567416191101
   318    0.7318336963653564  -0.19096478819847107  -0.04265384003520012
   319    0.5705536603927612  -0.07768461108207703  -0.1433621495962143
   320    0.4223799407482147  -0.059023190289735794  -0.41270318627357483
   321    0.374601274728775  0.777110755443573  0.9763858914375305
   322    0.28168657422065735  0.8289608955383301  1.050088882446289
   323    -1.4957683086395264  2.0043158531188965  -0.600336492061615
   324    -1.3771649599075317  1.997925877571106  -0.8373332023620605
   325    -0.5803074836730957  0.26184114813804626  -0.5584883093833923
   326    -1.2598719596862793  0.3130006492137909  0.6490246653556824
   327    -1.7267931699752808  1.6243797540664673  0.9639677405357361
   328    -0.8898892402648926  2.3972816467285156  3.0922590212867362e-06
   329    0.3480958640575409  -0.04057255759835243  0.8589383959770203
   330    -0.17573010921478271  0.22275947034358978  1.122271180152893
   331    0.0681363046169281  0.2467465102672577  1.1372898817062378
   332    0.4018889367580414  0.09467170387506485  0.955319881439209
   333    -1.308418869972229  2.4830234050750732  -0.9805599451065063
   334    -0.9952191114425659  1.856496810913086  0.09256627410650253
   335    -0.6054072380065918  2.0775606632232666  -0.09934451431035995
   336    -0.7354414463043213  1.2070966958999634  0.7300227880477905
   337    0.3459390103816986  1.5720651149749756  0.24497319757938385
   338    -0.22581088542938232  -0.2991882562637329  -0.5033987760543823
   339    -0.15169170498847961  -0.27891770005226135  0.9813938140869141
   340    0.7247623801231384  1.0426527261734009  -0.2111569046974182
   341    -0.5451252460479736  0.27781495451927185  0.7580139636993408
   342    0.4793766438961029  0.4433233439922333  -0.5188809633255005
   343    -1.4357633590698242  2.340078115463257  -0.3938908278942108
   344    0.5168151259422302  -0.2108605057001114  0.6308377981185913
   345    0.47145578265190125  -0.2889012396335602  0.4794768691062927
   346    -0.36864498257637024  2.5084221363067627  -0.33910277485847473
   347    1.2190169095993042  0.32802876830101013  0.3284476697444916
   348    -0.7640029191970825  1.4336754083633423  0.5728759169578552
   349    0.22101549804210663  1.0915087461471558  -0.4041418135166168
   350    -1.108549952507019  2.0842196941375732  0.4676763713359833
   351    -1.2744572162628174  1.853693962097168  -0.16481663286685944
   352    -1.1170947551727295  1.4663803577423096  0.7927659749984741
   353    -1.1863912343978882  1.9793312549591064  0.7187814116477966
   354    -1.3221501111984253  -0.3189057409763336  0.262530118227005
   355    -1.1728075742721558  -0.19302478432655334  0.39758047461509705
   356    -1.3944528102874756  1.5858423709869385  -0.18296344578266144
   357    -1.6245100498199463  1.70786452293396  -0.0659007728099823
   358    -1.6648359298706055  1.862444519996643  0.05120040476322174
   359    -0.5608806014060974  2.587609052658081  -0.31019604206085205
   360    -0.9451066851615906  0.08052140474319458  0.7375810146331787
   361    -0.2540345788002014  0.9218631982803345  -0.6481643319129944
   362    -1.1571128368377686  -0.040579669177532196  0.17160338163375854
   363    -1.7774345874786377  1.7374967336654663  0.5399253368377686
   364    -0.34752628207206726  0.9168500900268555  1.0411193370819092
   365    -0.24543194472789764  -0.1328204721212387  -0.5262424349784851
   366    0.3993322253227234  1.172119379043579  0.7911592125892639
   367    -0.6582196354866028  2.567202091217041  -0.20348750054836273
   368    -1.2412253618240356  2.2709262371063232  -1.1872271299362183
   369    -1.0596774816513062  2.1141178607940674  0.2244168221950531
   370    0.9781380295753479  -0.10378322005271912  0.054681446403265
   371    -0.8246684074401855  -0.12867896258831024  0.8419916033744812
   372    -1.6280111074447632  0.4620925784111023  0.10236620157957077
   373    -0.794139564037323  1.1785684823989868  -0.3936304450035095
   374    -1.3357020616531372  2.0908291339874268  0.03933338820934296
   375    0.041024260222911835  0.3780740201473236  1.1200629472732544
   376    -1.4701330661773682  1.1164454221725464  0.7399483323097229
   377    -0.32175374031066895  0.04529900848865509  0.9983478784561157
   378    -0.3197759985923767  0.3158887028694153  -0.7579368948936462
   379    -0.36847347021102905  -0.22691738605499268  -0.3361935019493103
   380    -0.14685004949569702  1.1408454179763794  0.8812901973724365
   381    -0.8607375621795654  2.0810835361480713  0.14450883865356445
   382    -1.706804871559143  1.9431601762771606  0.7138978838920593
   383    -1.3804863691329956  2.6250064373016357  -1.0859348773956299
   384    -1.3317772150039673  2.1906895637512207  -0.21551302075386047
   385    -0.27150529623031616  0.42158710956573486  1.0949324369430542
   386    -1.4830859899520874  2.269043207168579  -0.7297988533973694
   387    -1.5866367816925049  2.388566255569458  -0.808326005935669
   388    0.02261442504823208  1.0285511016845703  0.8877636194229126
   389    0.2734803855419159  0.4056498408317566  -0.6282750368118286
   390    0.075727179646492  0.0609893798828125  -0.5998530387878418
   391    -1.666880488395691  1.7874846458435059  0.9155505299568176
   392    -1.5348700284957886  0.9591400027275085  0.7389989495277405
   393    -1.2850041389465332  0.8599104881286621  -0.3762466013431549
   394    -1.2623707056045532  1.0538004636764526  -0.3628613352775574
   395    -0.15002387762069702  0.8392791152000427  1.1351841688156128
   396    0.7952216267585754  0.3639979064464569  0.6608941555023193
   397    -1.9009689092636108  1.454311490058899  0.42517557740211487
   398    -1.569276213645935  1.1577658653259277  0.6613235473632812
   399    -1.634076714515686  1.2232547998428345  0.00017408657004125416
   400    -1.147058367729187  -0.06319376826286316  -0.06824405491352081
   401    -0.47912463545799255  0.718964695930481  1.0871591567993164
   402    0.04646895080804825  -0.029664775356650352  -0.6018627285957336
   403    0.7826923131942749  0.6722875833511353  -0.2793043851852417
   404    -1.3303200006484985  2.0432801246643066  0.7222329378128052
   405    -0.8194302916526794  0.7202645540237427  -0.43108701705932617
   406    0.6638949513435364  0.7741062045097351  0.8466073870658875
   407    0.8872655034065247  0.6542821526527405  0.5046926736831665
   408    0.6355955600738525  0.09561499208211899  -0.2738962173461914
   409    0.3376905620098114  1.3773894309997559  0.705096423625946
   410    -0.8516876101493835  2.0042619705200195  -0.11017821729183197
   411    0.06986326724290848  -0.22055351734161377  0.5222693681716919
   412    -1.1345525979995728  1.0363539457321167  0.857589602470398
   413    -0.3083028495311737  -0.21196602284908295  0.7946847677230835
   414    -1.8429597616195679  1.313031554222107  0.776384711265564
   415    -0.23619619011878967  1.6003954410552979  0.25078147649765015
   416    -0.10862177610397339  -0.30715420842170715  0.9262773990631104
   417    -1.4106801748275757  0.6336649060249329  0.8180718421936035
   418    -0.5822342038154602  -0.29480263590812683  1.0497357845306396
   419    -0.6010754704475403  0.7270642518997192  0.8714513778686523
   420    0.2501360774040222  0.8579748272895813  -0.5726563334465027
   421    0.4019191265106201  0.2569599747657776  0.9654889702796936
   422    0.28161001205444336  -0.29462799429893494  0.2461860030889511
   423    -0.8916118741035461  0.5839802026748657  -0.39041227102279663
   424    -1.623950481414795  0.661716103553772  -0.12789566814899445
   425    -1.5299311876296997  0.8852111101150513  -0.2692870795726776
   426    -1.6674702167510986  1.0207369327545166  -0.08405430614948273
   427    -1.3493543863296509  -0.09970607608556747  0.08220444619655609
   428    -1.4505610466003418  -0.30097177624702454  0.02683321014046669
   429    -1.0585200786590576  -0.017913425341248512  0.5278858542442322
   430    0.39450520277023315  -0.13087895512580872  -0.4362139105796814
   431    -0.9542868137359619  -0.32838961482048035  0.10863158106803894
   432    -0.31788867712020874  1.4875084161758423  0.5843610763549805
   433    -0.5603325366973877  1.4894243478775024  0.37280696630477905
   434    -0.3999391794204712  2.593226432800293  -0.3199743628501892
   435    -1.1913408041000366  0.1803523451089859  0.09240176528692245
   436    -1.141817331314087  0.2093479484319687  -0.05333423614501953
   437    -0.6972566843032837  1.3376928567886353  0.6349112391471863
   438    0.061488643288612366  1.510455846786499  0.6453837156295776
   439    0.46187108755111694  1.5047961473464966  0.40073272585868835
   440    0.8069434762001038  1.0151541233062744  -0.07890558242797852
   441    -0.012660538777709007  -0.2246481031179428  0.02789287269115448
   442    -0.37700262665748596  -0.2980072498321533  -0.5480499267578125
   443    -1.702155351638794  2.0270559787750244  0.12882637977600098
   444    -1.771729588508606  2.0445451736450195  0.42357921600341797
   445    -0.914248526096344  -0.24858258664608002  -0.4158627986907959
   446    0.0853482186794281  1.6010186672210693  0.5010668635368347
   447    -1.319156527519226  1.3815594911575317  1.030625343322754
   448    -1.126264214515686  2.1045119762420654  0.3127782940864563
   449    -1.031839370727539  0.31819286942481995  0.7212270498275757
   450    -1.423498511314392  1.9292312860488892  -0.4853406846523285
   451    -0.2035556584596634  2.326054573059082  -0.4247346818447113
   452    -0.30484676361083984  1.0917731523513794  -0.4554086923599243
   453    -0.9509395956993103  -0.28142496943473816  0.16816827654838562
   454    -0.6044723987579346  1.087156057357788  0.8311919569969177
   455    0.9590610265731812  -0.15117618441581726  0.19108980894088745
   456    -1.4290598630905151  2.188854932785034  -0.11450082808732986
   457    0.8675929307937622  0.6245084404945374  -0.084266796708107
   458    0.09661811590194702  0.17857246100902557  -0.6203733086585999
   459    -0.4352751076221466  0.8617876172065735  1.0357565879821777
   460    -1.0624812841415405  1.2164716720581055  -0.36739933490753174
   461    -0.17725545167922974  1.0039646625518799  -0.4888657033443451
   462    -0.3739110231399536  2.745415687561035  -0.4119301736354828
   463    -1.250058889389038  0.35302165150642395  -0.2118128538131714
   464    -1.4394729137420654  0.30343618988990784  0.031626809388399124
   465    -1.7919670343399048  1.5268441438674927  0.898263156414032
   466    -0.02239871397614479  1.2309097051620483  -0.39823707938194275
   467    -0.17828746140003204  0.33630073070526123  -0.714214563369751
   468    -1.380542516708374  1.8068760633468628  0.9212843775749207
   469    -1.1407880783081055  1.642113447189331  0.7357748746871948
   470    0.10382770001888275  -0.3240671455860138  0.22096572816371918
   471    -0.538075864315033  2.2740070819854736  -0.12388455122709274
   472    0.4279457628726959  1.4245578050613403  0.634122371673584
   473    0.1469024121761322  -0.09066814929246902  -0.5107393860816956
   474    0.5056533813476562  1.3982913494110107  -0.08966003358364105
   475    -0.743848443031311  1.5179774761199951  0.42829829454421997
   476    -0.17869199812412262  1.4120347499847412  -0.2612769901752472
   477    0.6313028335571289  0.4354598820209503  0.8157614469528198
   478    -1.1951963901519775  1.9010409116744995  -0.05222541466355324
   479    0.45298150181770325  -0.131352961063385  -0.25916627049446106
   480    -0.9655247330665588  -0.306610107421875  0.8718074560165405
   481    -1.2624534368515015  1.9384475946426392  -0.3053227961063385
   482    -0.9455283284187317  0.829204797744751  -0.43556392192840576
   483    -1.1177974939346313  0.8041715025901794  -0.4462295472621918
   484    -0.8631925582885742  0.06119070202112198  -0.22059403359889984
   485    -0.7107008099555969  -0.10699663311243057  -0.5520340800285339
   486    -1.7525861263275146  1.839054822921753  0.2102293223142624
   487    -1.7946404218673706  1.9359503984451294  0.21630112826824188
   488    -1.8346277475357056  1.5647644996643066  0.6712880730628967
   489    0.496940940618515  -0.3121434152126312  0.2151048183441162
   490    -1.559706687927246  1.2013500928878784  0.8907849192619324
   491    -1.6097501516342163  1.329758882522583  0.9696667790412903
   492    -1.5300166606903076  1.3100395202636719  1.030033826828003
   493    0.6489623188972473  1.3528997898101807  0.28667837381362915
   494    -1.321534514427185  1.9510830640792847  -0.549514889717102
   495    -1.329616665840149  1.3526415824890137  -0.17827342450618744
   496    -1.5256396532058716  1.9638787508010864  -0.19710753858089447
   497    -1.4781208038330078  1.8584145307540894  -0.1419309675693512
   498    -1.3374606370925903  2.419278383255005  -0.7779529094696045
   499    0.03827542066574097  1.2372171878814697  0.8474437594413757
   500    0.3460754156112671  1.0266656875610352  -0.45499467849731445
   501    0.6083585023880005  1.0790514945983887  -0.2904174327850342
   502    0.4174053370952606  0.8608895540237427  -0.47054895758628845
   503    -1.2525067329406738  2.3196725845336914  -0.8277714252471924
   504    -0.685489296913147  -0.3246917426586151  0.2659202218055725
   505    -0.43896782398223877  -0.06558416783809662  1.0479167699813843
   506    -0.37993165850639343  -0.23241418600082397  0.015881460160017014
   507    -0.7665301561355591  0.4928566515445709  -0.3602200448513031
   508    -0.6327461004257202  0.3064034581184387  -0.40946412086486816
   509    -1.3882396221160889  1.6184836626052856  0.9892847537994385
   510    -1.0500324964523315  1.754143238067627  0.5434679388999939
   511    0.7280524969100952  0.185972660779953  -0.22418619692325592
   512    0.38472220301628113  -0.2967885434627533  -0.10187387466430664
   513    0.3693728446960449  -0.3121141493320465  0.04036842659115791
   514    0.30873945355415344  -0.2757336497306824  0.07453588396310806
   515    -0.2477002888917923  0.44802626967430115  -0.769967794418335
   516    -0.8210882544517517  0.8960181474685669  0.8437443375587463
   517    0.5255067348480225  0.5814616680145264  0.9443997144699097
   518    -0.7531039714813232  -0.2901779115200043  0.49519479274749756
   519    -1.4130417108535767  2.0691308975219727  -0.9635872840881348
   520    0.8532045483589172  0.023171599954366684  -0.13547281920909882
   521    -0.9812014102935791  2.337735176086426  -0.0522044375538826
   522    0.25871774554252625  1.5888196229934692  0.0356430783867836
   523    -1.1295208930969238  0.5115146636962891  -0.3776750862598419
   524    -0.9018679261207581  2.3217360973358154  0.08640889823436737
   525    -0.8753924369812012  2.1445353031158447  0.1133330762386322
   526    -0.5370847582817078  2.1191649436950684  -0.054122138768434525
   527    -1.7345584630966187  0.6128115653991699  0.2278856337070465
   528    -1.7918447256088257  0.8361511826515198  0.40591341257095337
   529    -1.0237852334976196  -0.31372520327568054  0.57741379737854
   530    0.22600480914115906  0.6324673295021057  1.0840929746627808
   531    -0.6635705828666687  2.421107292175293  -0.31242865324020386
   532    -0.563572108745575  2.3633179664611816  -0.3528037369251251
   533    0.9229615926742554  0.66985023021698  0.12298844754695892
   534    0.9281463027000427  0.4769800007343292  0.10930490493774414
   535    0.6194661259651184  -0.18377147614955902  0.5544742941856384
   536    -0.42242053151130676  0.4301864802837372  1.0462595224380493
   537    -0.3812428116798401  0.97258460521698  0.888543426990509
   538    -1.51272451877594  1.9214024543762207  0.8706588745117188
   539    -1.301997184753418  0.2441750317811966  0.47523611783981323
   540    -0.5498107075691223  0.40630435943603516  0.8120134472846985
   541    -0.31133154034614563  1.3533916473388672  -0.29787400364875793
   542    -0.6652868390083313  1.1390355825424194  -0.39870062470436096
   543    0.175451397895813  -0.22401268780231476  0.6449087262153625
   544    -0.1588662713766098  0.538394033908844  1.1563754081726074
   545    -0.5348649621009827  0.6871764659881592  -0.7412847280502319
   546    -1.306281328201294  2.3380067348480225  -1.1980358362197876
   547    -1.7909762859344482  1.8546464443206787  0.6165400147438049
   548    -1.7920562028884888  0.7734297513961792  0.2336183339357376
   549    -1.0936813354492188  0.28980422019958496  -0.17392230033874512
   550    -1.3036296367645264  0.6604335904121399  0.883009672164917
   551    -1.6257933378219604  2.0960893630981445  0.245504692196846
   552    0.3550247251987457  -0.14103738963603973  0.8830475807189941
   553    -0.4354982078075409  1.173866868019104  -0.4330141842365265
   554    1.1492122411727905  0.010660795494914055  0.2520759403705597
   555    -0.2015475481748581  -0.23093298077583313  0.4969360828399658
   556    -0.7959911823272705  0.6068015694618225  0.8667718768119812
   557    -0.8572806119918823  0.4012797772884369  0.8398904800415039
   558    1.1889426708221436  0.17005199193954468  0.4120613932609558
   559    -1.722578525543213  1.7691459655761719  0.052840590476989746
   560    -1.3221900463104248  2.1232943534851074  0.26038646697998047
   561    0.1471092253923416  -0.06764104962348938  0.9827757477760315
   562    -1.700595736503601  1.2177449464797974  0.49268460273742676
   563    -0.17357923090457916  0.9831169843673706  1.0102386474609375
   564    -0.8933339715003967  -0.3056879937648773  0.3583340048789978
   565    -1.0792369842529297  -0.3134627938270569  -0.24565675854682922
   566    -1.073758840560913  -0.33341142535209656  0.35808220505714417
   567    -0.2823340594768524  2.709080219268799  -0.525708794593811
   568    -0.41945764422416687  2.154665231704712  -0.14203909039497375
   569    -1.2634501457214355  -0.16717800498008728  0.5147936344146729
   570    0.7093974947929382  0.8968154191970825  -0.2557160258293152
   571    0.6018650531768799  0.818084716796875  -0.40060821175575256
   572    0.22231043875217438  0.22511076927185059  1.0439863204956055
   573    -0.023239055648446083  0.16735781729221344  1.087190866470337
   574    -1.6591492891311646  0.5433382391929626  0.03533785790205002
   575    0.058810558170080185  1.3271212577819824  -0.3683449923992157
   576    -1.197788953781128  0.9692503213882446  -0.3794942796230316
   577    -1.0292268991470337  0.1188385933637619  0.41549596190452576
   578    0.6037119626998901  0.9199503064155579  0.8420616984367371
   579    -1.7438879013061523  0.698922336101532  0.32148221135139465
   580    -1.0073786973953247  -0.009013360366225243  0.743743360042572
   581    -1.0781327486038208  -0.09521538764238358  0.8866552710533142
   582    -1.6703379154205322  1.5543465614318848  -0.08882826566696167
   583    -1.37991201877594  2.385028600692749  -0.546109676361084
   584    0.5028973817825317  1.2304116487503052  -0.2478606402873993
   585    -1.0150963068008423  0.22085489332675934  0.6501575708389282
   586    -1.7047119140625  1.4799188375473022  0.9829317331314087
   587    -0.7497589588165283  1.5632320642471313  0.07906293869018555
   588    -0.5106697678565979  1.250077247619629  0.7329520583152771
   589    0.16363288462162018  -0.3168022036552429  -0.29653239250183105
   590    -0.62239670753479  2.1577553749084473  -0.24414007365703583
   591    -0.8416799902915955  1.9617116451263428  -0.0426940955221653
   592    -0.18085771799087524  2.549187660217285  -0.5793583393096924
   593    -1.2353365421295166  2.103086471557617  -0.3472609221935272
   594    -1.087653636932373  -0.07077862322330475  -0.12984979152679443
   595    0.749205470085144  0.11178826540708542  0.6263998746871948
   596    -0.38122156262397766  1.5403835773468018  0.05888563394546509
   597    -0.46186521649360657  1.4218311309814453  -0.1889389604330063
   598    -0.8622234463691711  0.4230816662311554  -0.35663291811943054
   599    -0.7657475471496582  0.19571833312511444  -0.23109287023544312
   600    -1.5549777746200562  2.128019094467163  -0.366300493478775
   601    -0.7293052077293396  -0.32797929644584656  0.12121111899614334
   602    0.3355150818824768  0.10967601090669632  -0.5711815357208252
   603    -0.2587944567203522  -0.04232090339064598  -0.6035428047180176
   604    -0.36122336983680725  0.037165913730859756  -0.6322346925735474
   605    -0.8013790249824524  1.4439291954040527  -0.2319869101047516
   606    -0.8196120858192444  1.3065965175628662  -0.3122346103191376
   607    0.19747355580329895  -0.30279386043548584  0.5320108532905579
   608    -1.0834006071090698  1.852970004081726  0.5757309198379517
   609    1.089186668395996  0.46736446022987366  0.19505470991134644
   610    0.1934089958667755  -0.3104569911956787  0.05212967470288277
   611    0.906964898109436  0.09571924805641174  -0.1319800317287445
   612    -1.6958383321762085  0.6948144435882568  -0.053325001150369644
   613    -0.7232146859169006  -0.27769529819488525  0.2735274136066437
   614    -1.7166563272476196  0.6575915217399597  0.10994374006986618
   615    -0.417951762676239  1.5404267311096191  0.34073910117149353
   616    -1.827520728111267  1.2829233407974243  0.7000168561935425
   617    0.5038259625434875  0.022318871691823006  0.7906820774078369
   618    -0.990935742855072  0.009975303895771503  -0.16867224872112274
   619    -0.3138452172279358  0.5230765342712402  1.1259043216705322
   620    0.27224642038345337  0.3194120228290558  -0.606257975101471
   621    -0.09315889328718185  0.9240710735321045  -0.6465930342674255
   622    -0.057276900857686996  0.809243381023407  -0.7088363170623779
   623    -1.2014554738998413  0.47955793142318726  0.8280495405197144
   624    -1.2654527425765991  -0.28648823499679565  0.3699524402618408
   625    -0.14074817299842834  -0.3024574816226959  0.8322521448135376
   626    -0.5173199772834778  -0.30210962891578674  0.8571577072143555
   627    -0.9605687260627747  -0.27046895027160645  -0.25148138403892517
   628    -1.0136446952819824  1.2004799842834473  0.7597954869270325
   629    0.32890602946281433  -0.3107719421386719  0.4432997405529022
   630    0.44511258602142334  -0.27161720395088196  0.2772831916809082
   631    -1.2104442119598389  -0.06555216759443283  0.7849618792533875
   632    -0.6619055271148682  0.5374078154563904  -0.560113251209259
   633    -0.8019015789031982  -0.08844614773988724  -0.44092467427253723
   634    -1.540859341621399  2.073152542114258  -0.16064560413360596
   635    -1.184572696685791  -0.3073223829269409  0.8865185976028442
   636    1.1762722730636597  0.3829680383205414  0.1384805291891098
   637    1.0845247507095337  -0.04926128312945366  0.338960736989975
   638    -1.4930999279022217  0.4352048635482788  -0.1343543976545334
   639    -1.6082240343093872  0.9038840532302856  0.6853493452072144
   640    -0.10907195508480072  1.4832959175109863  0.6801424622535706
   641    -0.8734734654426575  1.5859806537628174  0.2648083567619324
   642    -1.5663856267929077  2.5162394046783447  -0.9882738590240479
   643    0.9057034254074097  0.058191899210214615  0.6555203795433044
   644    -1.517136573791504  1.6930272579193115  -0.1323111653327942
   645    -1.0898624658584595  0.9417710900306702  0.866435170173645
   646    -1.3022804260253906  1.0062744617462158  0.8390489220619202
   647    -1.5634872913360596  0.6908594965934753  -0.22581367194652557
   648    -0.05814729258418083  1.0712780952453613  -0.45812854170799255
   649    -0.1295417696237564  0.1163225844502449  1.0732616186141968
   650    -1.2749817371368408  1.6705385446548462  0.7889174222946167
   651    -1.299096703529358  1.8966573476791382  -0.31358569860458374
   652    0.2761200964450836  1.191766381263733  0.798733651638031
   653    0.4959779679775238  0.37162744998931885  0.8903387784957886
   654    -0.06827464699745178  0.442120224237442  -0.7164005041122437
   655    -0.10595601052045822  0.5667191743850708  -0.7490134239196777
   656    0.5335327386856079  0.3050936162471771  -0.43644091486930847
   657    0.41864120960235596  0.351624459028244  -0.5616852641105652
   658    0.6699249148368835  0.6154263615608215  -0.37636497616767883
   659    0.5998812913894653  0.45706290006637573  -0.4314221739768982
   660    0.8914470076560974  0.9090798497200012  0.30797186493873596
   661    -0.885761022567749  -0.32372763752937317  -0.49573320150375366
   662    -0.517657458782196  -0.29807981848716736  -0.5830762982368469
   663    -0.5979099273681641  0.592252254486084  0.8576416969299316
   664    -1.788449764251709  1.013780951499939  0.36957067251205444
   665    -1.2399137020111084  0.6245908141136169  -0.3867921531200409
   666    -1.656136155128479  0.5591893792152405  0.457055926322937
   667    -1.433153748512268  1.8801053762435913  -0.3008093535900116
   668    -1.324988842010498  -0.1410718560218811  -0.042164482176303864
   669    0.010969371534883976  1.5079025030136108  -0.1520257294178009
   670    0.1404581516981125  -0.24706488847732544  -0.24194754660129547
   671    -0.2516889274120331  1.2592421770095825  -0.3613155484199524
   672    -1.0416744947433472  0.10622502118349075  0.5444528460502625
   673    -0.21344880759716034  -0.23224078118801117  0.1605750322341919
   674    -0.8306300640106201  0.2012885957956314  0.8186319470405579
   675    -0.9613284468650818  2.118447780609131  -0.13749070465564728
   676    -1.3007078170776367  -0.15899115800857544  0.7406898736953735
   677    0.13329848647117615  0.7815905213356018  -0.6610901951789856
   678    -1.8422672748565674  1.8307658433914185  0.3417437672615051
   679    -1.0564467906951904  1.6502634286880493  -0.08419925719499588
   680    0.5870420932769775  0.7133980989456177  0.8678272366523743
   681    1.135563611984253  0.400897353887558  0.4493306577205658
   682    -1.2950884103775024  -0.28691673278808594  0.4816705286502838
   683    -0.6004577875137329  0.02145443856716156  -0.37033402919769287
   684    -1.536242127418518  0.39179515838623047  0.4252104163169861
   685    -1.4391908645629883  0.2688642144203186  0.3594909906387329
   686    -1.0539114475250244  1.8762861490249634  0.39899295568466187
   687    -0.2999405264854431  -0.028285760432481766  0.9537870287895203
   688    -0.2889522314071655  0.13577455282211304  -0.6943883299827576
   689    -1.1880314350128174  0.8831828832626343  0.9063854217529297
   690    0.8545580506324768  0.9281513094902039  -0.028429165482521057
   691    -0.8389281034469604  0.7155779600143433  0.8502917885780334
   692    -0.14444449543952942  -0.21267548203468323  0.751810610294342
   693    0.3126358687877655  0.09724391996860504  0.9755281805992126
   694    0.05919124186038971  0.5796957612037659  1.13132905960083
   695    -0.9730721116065979  0.4428371787071228  -0.3134249448776245
   696    -0.6375637054443359  0.21109503507614136  -0.32658931612968445
   697    0.33896467089653015  0.9041222333908081  0.9573121070861816
   698    -1.534324288368225  1.3829747438430786  -0.1398196816444397
   699    -0.5345171689987183  2.64176607131958  -0.18078486621379852
   700    -0.22098280489444733  0.7189725041389465  -0.7687849402427673
   701    -0.6703972816467285  -0.04832037538290024  0.8693785667419434
   702    -0.6707637310028076  -0.23274868726730347  -0.039299920201301575
   703    -0.14887690544128418  1.3170548677444458  0.8024740219116211
   704    -0.41807499527931213  1.3871116638183594  0.6729909777641296
   705    -1.4166444540023804  -0.22797755897045135  -0.009345905855298042
   706    -1.792825698852539  1.6771239042282104  0.09527119994163513
   707    -1.2735493183135986  2.112633466720581  -0.7995043396949768
   708    -1.4906282424926758  2.0998947620391846  0.04992420971393585
   709    -1.5949580669403076  2.0346057415008545  0.015483526512980461
   710    0.5161389112472534  1.0849347114562988  0.7968526482582092
   711    -0.0797673910856247  0.12692125141620636  -0.6561794281005859
   712    0.5507617592811584  0.014869153499603271  -0.3987971246242523
   713    -0.9838023781776428  1.5269931554794312  0.632363498210907
   714    -0.6986107230186462  -0.3207268714904785  0.4912486672401428
   715    0.04359925910830498  -0.289798766374588  0.9244384765625
   716    -0.926694929599762  -0.2755817174911499  0.9077469706535339
   717    -0.37505602836608887  2.4517874717712402  -0.44689133763313293
   718    0.05300178751349449  -0.3201335668563843  -0.43006792664527893
   719    -0.70643550157547  -0.2962109446525574  0.9279744625091553
   720    -0.36046671867370605  -0.3021099865436554  1.0054726600646973
   721    -0.29901620745658875  -0.27871695160865784  1.025728702545166
   722    -0.46532946825027466  2.165360689163208  -0.21052610874176025
   723    -1.7356094121932983  1.1622427701950073  0.3078068196773529
   724    -0.24210554361343384  2.6586458683013916  -0.5186778903007507
   725    -1.260514497756958  -0.12602499127388  0.2518483102321625
   726    -1.3407598733901978  -0.23093800246715546  0.2824877202510834
   727    -0.7246612906455994  2.16147780418396  0.08711709082126617
   728    0.4927353262901306  0.1831706166267395  -0.4974096119403839
   729    -0.36631038784980774  -0.23444628715515137  0.5178360939025879
   730    -0.5882585644721985  -0.24941779673099518  0.4901673495769501
   731    -1.8516432046890259  1.4380066394805908  0.5839527249336243
   732    -1.0566245317459106  -0.19110387563705444  -0.21603628993034363
   733    -0.18590648472309113  -0.12812040746212006  0.9851548671722412
   734    -0.07035139948129654  1.6138945817947388  0.4126065671443939
   735    0.8354435563087463  0.39834830164909363  -0.13879430294036865
   736    0.4527673125267029  0.7544967532157898  0.9767498970031738
   737    0.03141698241233826  -0.13863858580589294  -0.49116989970207214
   738    -0.11695779114961624  -0.0780366063117981  -0.5899623036384583
   739    -1.3254464864730835  2.1100974082946777  -0.09883993864059448
   740    -1.2804068326950073  1.8464072942733765  0.7793664336204529
   741    -0.5179744362831116  -0.23246780037879944  -0.15054266154766083
   742    -1.3411659002304077  1.7855911254882812  -0.1595349907875061
   743    0.4004862606525421  1.5090223550796509  0.4952854812145233
   744    -0.9468038082122803  -0.1343054324388504  0.8738424181938171
   745    -0.7104994058609009  0.6086153388023376  -0.4444999396800995
   746    -1.0782716274261475  2.0213208198547363  0.5218010544776917
   747    0.26322507858276367  0.21296848356723785  -0.5832833647727966
   748    -0.30746719241142273  2.3990087509155273  -0.32707685232162476
   749    -0.5774767994880676  2.4332478046417236  -0.17395992577075958
   750    -0.05561394616961479  -0.23437842726707458  0.35114824771881104
   751    -1.5329898595809937  0.3577198088169098  0.18139150738716125
   752    -1.190809965133667  -0.32721203565597534  -0.20669889450073242
   753    -0.91908860206604  1.6260502338409424  0.4212949872016907
   754    -0.6382887959480286  0.7577462196350098  -0.5081062912940979
   755    -0.6863094568252563  1.0355418920516968  -0.4420240819454193
   756    -0.5434658527374268  2.361464738845825  -0.1875256448984146
   757    0.39166566729545593  0.4991650879383087  1.0351625680923462
   758    -1.4005825519561768  -0.3269135355949402  0.08224412798881531
   759    -1.7004987001419067  0.7431991696357727  0.5504698157310486
   760    -0.6292411684989929  0.039743103086948395  0.7415464520454407
   761    0.39046719670295715  -0.297332227230072  0.6411668062210083
   762    0.09114920347929001  -0.31725946068763733  0.020123593509197235
   763    -0.7305496335029602  0.6885770559310913  0.878481388092041
   764    -1.4796251058578491  2.591454029083252  -0.9802407622337341
   765    -1.4055126905441284  2.510106325149536  -0.8998515009880066
   766    0.430098295211792  -0.28496044874191284  0.18943184614181519
   767    0.7724558115005493  0.15293890237808228  -0.10511097311973572
   768    -0.9720396399497986  1.3623021841049194  0.6166618466377258
   769    -0.7228559851646423  1.5550588369369507  0.26722559332847595
   770    0.7779712677001953  1.1634631156921387  0.07146499305963516
   771    -1.8671878576278687  1.4521870613098145  0.8047457933425903
   772    0.2790994942188263  0.7702264785766602  -0.6018162965774536
   773    -0.9147223830223083  2.182204246520996  0.1495790332555771
   774    -1.4434177875518799  2.119354486465454  -0.7344227433204651
   775    -0.7271429896354675  -0.2362820953130722  -0.24458050727844238
   776    -0.30607789754867554  0.28634482622146606  1.073155164718628
   777    -1.1714372634887695  1.6570321321487427  -0.1337173581123352
   778    0.14654210209846497  -0.3065408766269684  0.3808070719242096
   779    -0.1589982509613037  0.25562745332717896  -0.7148367762565613
   780    -1.6680368185043335  1.2229208946228027  0.5953714847564697
   781    -1.3962433338165283  0.3710549473762512  -0.1034741923213005
   782    -0.32501712441444397  2.3383405208587646  -0.39977583289146423
   783    -0.3134513199329376  1.548303246498108  0.46164554357528687
   784    -1.7077020406723022  0.6652432084083557  0.4467228353023529
   785    -0.9166758060455322  0.9287473559379578  0.8671377897262573
   786    0.5147020816802979  0.12869413197040558  0.8563267588615417
   787    -1.5637998580932617  1.4717882871627808  1.0425547361373901
   788    -1.158233880996704  0.17950284481048584  0.41265425086021423
   789    -1.5729228258132935  2.437598943710327  -0.7931517362594604
   790    -0.7728018164634705  -0.13990499079227448  0.8262690305709839
   791    0.2560798227787018  -0.26850423216819763  -0.4382421374320984
   792    -0.4873252511024475  -0.23927249014377594  0.4776054918766022
   793    0.19322407245635986  0.43985745310783386  -0.6502028703689575
   794    -0.18317154049873352  0.3659720718860626  1.110496163368225
   795    0.08618622273206711  0.943236231803894  -0.5529179573059082
   796    -1.0695538520812988  1.5260573625564575  -0.11203442513942719
   797    0.047815464437007904  0.052412133663892746  1.070746660232544
   798    0.1382111757993698  0.14991821348667145  1.0625931024551392
   799    -0.44680511951446533  1.2457674741744995  0.778070330619812
   800    -0.7105893492698669  0.33505865931510925  -0.3035827875137329
   801    -0.3673984110355377  0.24488075077533722  1.0179944038391113
   802    -0.48147252202033997  0.041519518941640854  0.8300217390060425
   803    -0.30765068531036377  2.2090938091278076  -0.23824597895145416
   804    -0.5488614439964294  0.11419764161109924  -0.5169404745101929
   805    -0.8946970105171204  1.5914652347564697  0.1076936274766922
   806    -1.507535457611084  1.276676893234253  -0.11348214000463486
   807    -0.007227843627333641  -0.3051341474056244  0.799834668636322
   808    0.013952533714473248  -0.21186043322086334  0.7020838856697083
   809    0.756356954574585  0.4680837094783783  0.7150538563728333
   810    0.8045304417610168  0.7050679326057434  0.6634343266487122
   811    -1.2867769002914429  1.1806397438049316  0.7610529661178589
   812    -1.1500191688537598  0.7497156262397766  0.8891007304191589
   813    -0.08255770057439804  1.3099418878555298  -0.3363626003265381
   814    -0.025897420942783356  0.5187058448791504  1.1808346509933472
   815    -0.98149174451828  0.5439347624778748  0.8771512508392334
   816    0.002822512062266469  -0.21824172139167786  -0.27153557538986206
   817    -0.6543951034545898  0.7004519701004028  0.8400608897209167
   818    0.367270827293396  1.1298305988311768  -0.34482675790786743
   819    -1.1312175989151  -0.31173762679100037  0.6742391586303711
   820    -0.09662091732025146  0.6784681081771851  1.1463886499404907
   821    -0.9252566695213318  1.2352193593978882  -0.3427365720272064
   822    -0.5711312890052795  -0.19416938722133636  1.0711923837661743
   823    -0.6945129036903381  -0.29649651050567627  -0.6223034262657166
   824    -0.9731263518333435  0.22869831323623657  -0.24181972444057465
   825    0.5848042368888855  1.238446831703186  -0.1966683566570282
   826    0.09066270291805267  0.35943084955215454  -0.6581467390060425
   827    -1.3037728071212769  -0.310045450925827  0.6873283386230469
   828    -1.331624150276184  1.107115626335144  -0.2925516366958618
   829    -1.079131841659546  -0.13661427795886993  0.38274022936820984
   830    0.39191317558288574  -0.2757939100265503  0.3822595775127411
   831    1.0922952890396118  0.16602319478988647  -0.037721648812294006
   832    -1.1764079332351685  -0.330535352230072  0.056635782122612
   833    -0.7965946197509766  1.0353513956069946  -0.4205338954925537
   834    -0.6037768721580505  0.374663770198822  -0.5708458423614502
   835    -1.5266027450561523  0.41692763566970825  -0.004040747415274382
   836    -0.4636004865169525  -0.14270687103271484  -0.5792966485023499
   837    -1.1968908309936523  1.8572837114334106  0.7096776366233826
   838    -1.1369353532791138  0.89842689037323  -0.4321606159210205
   839    -1.6622129678726196  1.1996232271194458  0.7504897713661194
   840    0.6210067868232727  0.5331804752349854  0.8693557977676392
   841    -0.33547911047935486  0.7588772177696228  1.1335422992706299
   842    0.5138118863105774  -0.1613404005765915  0.7272670865058899
   843    -1.3692196607589722  2.356381416320801  -1.0775423049926758
   844    -1.4764888286590576  2.364121675491333  -0.8689707517623901
   845    -1.692097544670105  1.9877289533615112  0.10804380476474762
   846    -0.4363977313041687  0.2660786509513855  -0.7047722339630127
   847    0.16466091573238373  0.08088399469852448  -0.6106730699539185
   848    1.062474012374878  0.11411148309707642  0.5691142678260803
   849    -0.8705648183822632  0.6307852268218994  0.8401802182197571
   850    -1.3303102254867554  0.9738635420799255  -0.32720455527305603
   851    -0.7351528406143188  2.015561580657959  0.0036355869378894567
   852    -0.49720892310142517  0.9056535363197327  0.8849789500236511
   853    -0.49173736572265625  1.0102089643478394  0.8907642960548401
   854    -1.1281782388687134  2.0914762020111084  -0.023028111085295677
   855    -1.7325770854949951  0.857264518737793  0.06533341854810715
   856    -1.143875241279602  0.6657969951629639  -0.4270736277103424
   857    0.23849356174468994  0.5390490889549255  1.0990040302276611
   858    -0.5906668901443481  0.781112015247345  -0.611933171749115
   859    -1.4794251918792725  2.181891918182373  -0.5918664336204529
   860    0.9150784611701965  0.6096001863479614  0.427431583404541
   861    -0.6176580786705017  -0.30731651186943054  0.438431978225708
   862    -0.9768230319023132  0.8381312489509583  0.8834673166275024
   863    -0.8004572987556458  0.8227807879447937  -0.4706372618675232
   864    0.4651445150375366  -0.20066402852535248  -0.10825034230947495
   865    -1.2632001638412476  -0.11371716856956482  0.5969017148017883
   866    0.66476970911026  -0.10311175137758255  -0.11434648185968399
   867    0.13744167983531952  1.403670072555542  -0.2915697395801544
   868    0.4525006115436554  -0.3053896427154541  0.37886351346969604
   869    -1.7814292907714844  1.7469297647476196  0.22842499613761902
   870    -0.4371322989463806  2.67519211769104  -0.23744194209575653
   871    -0.4617924094200134  2.699725866317749  -0.26465001702308655
   872    -0.868749737739563  -0.1365101933479309  -0.36407962441444397
   873    -1.0296658277511597  -0.32911837100982666  -0.24069632589817047
   874    0.675711989402771  0.9768019914627075  0.7426843643188477
   875    0.013927331194281578  -0.11018586158752441  0.9221832752227783
   876    -1.6769537925720215  1.2664662599563599  0.9345195293426514
   877    0.060607414692640305  0.7023907899856567  -0.6844109296798706
   878    -0.44392073154449463  2.1864280700683594  -0.05990402027964592
   879    0.13010163605213165  1.5326288938522339  -0.13635915517807007
   880    0.2508215010166168  1.4863877296447754  -0.15529818832874298
   881    0.5281071066856384  0.7418438792228699  0.9371170401573181
   882    0.9250031113624573  0.1879737377166748  0.6375556588172913
   883    0.4473561644554138  -0.29746079444885254  0.005393004510551691
   884    -0.9402658343315125  -0.18298794329166412  -0.2395809441804886
   885    0.9606133103370667  0.23750823736190796  -0.07531603425741196
   886    0.5167117714881897  0.2295815795660019  0.8943248391151428
   887    0.5984071493148804  0.6632344722747803  -0.4062958359718323
   888    -0.06444743275642395  0.25961989164352417  1.1312353610992432
   889    -1.2409422397613525  1.5553873777389526  0.8378134369850159
   890    -1.7404565811157227  0.9411600828170776  0.05035535246133804
   891    0.6244924664497375  0.2230294644832611  -0.37370648980140686
   892    -1.0275168418884277  1.7762073278427124  0.02488882653415203
   893    -0.9529740810394287  0.7242176532745361  0.9108070135116577
   894    -1.1323665380477905  2.1347179412841797  0.19422104954719543
   895    -1.2461655139923096  -0.17853586375713348  0.8586218953132629
   896    0.5498478412628174  1.4466861486434937  0.16580727696418762
   897    -1.6202973127365112  1.9057902097702026  -0.0189016442745924
   898    -1.259964108467102  1.9890013933181763  -0.47851231694221497
   899    -1.373941421508789  0.8402841091156006  0.8474187254905701
   900    -1.2284075021743774  2.196603298187256  -0.6666929721832275
   901    -1.4405757188796997  1.954917073249817  -0.6133835911750793
   902    -0.7790154814720154  2.214276075363159  0.02396705001592636
   903    0.6325992345809937  0.3472177982330322  0.8187806010246277
   904    -0.6993556618690491  0.47469449043273926  -0.39072686433792114
   905    -0.25477609038352966  0.11885123699903488  1.031667947769165
   906    -0.1621111035346985  0.0053514656610786915  1.0244826078414917
   907    0.020344344899058342  -0.022919010370969772  1.0247389078140259
   908    -1.30914306640625  0.21447670459747314  0.10024570673704147
   909    0.3304235339164734  0.42599403858184814  1.0392087697982788
   910    -1.5810222625732422  2.009377956390381  0.7313123941421509
   911    -1.524893045425415  2.007326126098633  -0.351713627576828
   912    -0.7235611081123352  0.5091277360916138  0.8419162034988403
   913    -0.6690414547920227  0.10102958977222443  -0.20266857743263245
   914    -0.8881489634513855  0.25199395418167114  -0.2687087953090668
   915    -0.9625262022018433  0.6442798972129822  0.8819621205329895
   916    -1.0819966793060303  0.47857043147087097  0.831735372543335
   917    -0.5226288437843323  0.38129228353500366  -0.6951115727424622
   918    -1.3971353769302368  -0.29077669978141785  0.23177684843540192
   919    -1.4541996717453003  0.5285007357597351  -0.24320700764656067
   920    -1.705567479133606  1.3819533586502075  0.9831127524375916
   921    -1.5748566389083862  2.2909767627716064  -0.5725348591804504
   922    -0.5942286252975464  -0.3059631884098053  0.8294026851654053
   923    -0.5832192897796631  1.348895788192749  -0.26961585879325867
   924    -0.7190191745758057  -0.29581210017204285  0.3846425712108612
   925    -1.1318373680114746  1.3668233156204224  -0.2522759735584259
   926    -0.38213497400283813  1.2568305730819702  -0.3774877190589905
   927    -1.3506895303726196  1.205557107925415  0.7612462043762207
   928    -0.17302420735359192  -0.20570001006126404  -0.5185197591781616
   929    -1.1091121435165405  0.06981232762336731  0.17654065787792206
   930    0.44526734948158264  0.421842098236084  0.977009117603302
   931    -0.6469596028327942  0.21487152576446533  0.7689129710197449
   932    0.32272154092788696  0.020934389904141426  -0.5282267332077026
   933    -0.6604536771774292  -0.3270215690135956  -0.4179594814777374
   934    0.5585551261901855  0.15051281452178955  -0.39106208086013794
   935    -0.12138237059116364  1.0290813446044922  0.8772057294845581
   936    0.13378125429153442  1.3376531600952148  0.7756506204605103
   937    0.1447441428899765  0.2997896671295166  -0.6469480395317078
   938    -0.6772667765617371  1.2731199264526367  -0.34273040294647217
   939    -0.48846569657325745  0.9196934103965759  -0.498065322637558
   940    -1.0626373291015625  -0.010948608629405499  0.7132135629653931
   941    0.7066876888275146  -0.22441811859607697  0.47206321358680725
   942    -0.4635283648967743  1.4657292366027832  0.4939749240875244
   943    -0.00714744022116065  1.0020755529403687  -0.4654814302921295
   944    -0.51128751039505  -0.32969754934310913  -0.5209016799926758
   945    -1.2074846029281616  -0.23912334442138672  0.40340885519981384
   946    -0.7679910063743591  2.346560478210449  0.05287857726216316
   947    0.9292775988578796  0.426922470331192  0.41212791204452515
   948    -0.21750757098197937  2.304813861846924  -0.3046606183052063
   949    -1.7185988426208496  1.1938666105270386  0.165166974067688
   950    0.3811000883579254  -0.2860400080680847  0.11356979608535767
   951    -1.4254130125045776  2.6269712448120117  -1.1233978271484375
   952    -1.6766197681427002  1.312120795249939  -0.02577396295964718
   953    -0.6356777548789978  -0.011971894651651382  -0.37744054198265076
   954    -1.3262050151824951  -0.2326359748840332  0.5886452198028564
   955    -1.4681898355484009  2.5393028259277344  -1.0723793506622314
   956    -0.2894751727581024  0.5540692806243896  -0.7693446278572083
   957    -0.29719558358192444  0.624226987361908  -0.7891074419021606
   958    -0.7814452648162842  2.02820086479187  0.0641062930226326
   959    -0.21188463270664215  0.6086008548736572  1.1620057821273804
   960    -1.7703138589859009  1.5685456991195679  0.051943931728601456
   961    -1.3740663528442383  0.8184340000152588  -0.3357487916946411
   962    -0.8415601849555969  -0.3095177412033081  0.7500150799751282
   963    -1.2497429847717285  -0.22802236676216125  0.4866601824760437
   964    -0.738152801990509  1.5004463195800781  -0.12697537243366241
   965    0.029009390622377396  0.9887210726737976  0.993360161781311
   966    0.0824533998966217  0.5022435784339905  -0.6980605125427246
   967    0.3541508913040161  0.5120005011558533  -0.5676700472831726
   968    -1.2672784328460693  -0.3295953571796417  -0.16907145082950592
   969    -0.6952682137489319  -0.13515444099903107  0.9347283244132996
   970    -0.6511923670768738  0.651648998260498  -0.5902999043464661
   971    0.0703270360827446  -0.3064352869987488  0.7670323252677917
   972    -0.7462522983551025  2.4438629150390625  0.0022952985018491745
   973    -0.7189918160438538  -0.009783998131752014  -0.2327871471643448
   974    0.8966818451881409  0.36930733919143677  0.03494296967983246
   975    -1.2393068075180054  0.5375319123268127  0.8427185416221619
   976    -0.2629379630088806  1.1833996772766113  0.85446697473526
   977    -1.564850091934204  0.5359739661216736  0.6215125918388367
   978    -1.0013607740402222  1.0907278060913086  0.8022201657295227
   979    -1.0693347454071045  1.1108659505844116  -0.38264527916908264
   980    -1.3996970653533936  0.4496748447418213  -0.21959298849105835
   981    -1.094689965248108  2.216738700866699  -0.0023241678718477488
   982    -0.8946360945701599  0.9579177498817444  -0.4335695803165436
   983    -1.483801245689392  1.4795761108398438  1.0738226175308228
   984    0.07244352251291275  0.8061143755912781  1.1136269569396973
   985    -0.22153213620185852  -0.2114754021167755  0.7733507752418518
   986    -1.6681712865829468  0.9358696937561035  -0.09450497478246689
   987    -0.22651544213294983  -0.30349600315093994  0.8599969744682312
   988    -0.06554248929023743  -0.21337032318115234  0.7207707762718201
   989    1.165473461151123  0.4358719289302826  0.26567134261131287
   990    -0.7057772874832153  0.8782193064689636  0.8939012885093689
   991    -1.0976080894470215  1.9625613689422607  0.5529273152351379
   992    -0.634092390537262  2.5466818809509277  -0.08587050437927246
   993    0.22750094532966614  0.6713327169418335  -0.6227492094039917
   994    -0.9672989845275879  1.7359627485275269  0.20164372026920319
   995    -1.8270245790481567  1.867195725440979  0.4269840121269226
   996    -1.7695369720458984  0.8601852655410767  0.15721215307712555
   997    -0.5792311429977417  0.8197808861732483  0.8818694353103638
   998    -1.1134612560272217  1.313391923904419  0.723560094833374
   999    -1.4469376802444458  -0.2537962794303894  0.08050354570150375
   1000    -1.5345364809036255  1.5163826942443848  0.4224318861961365
   1001    -0.8571546077728271  -0.08346535265445709  0.013498554937541485
   1002    0.3841278553009033  0.6568480134010315  0.7840003371238708
   1003    0.19237947463989258  -0.17896324396133423  0.7746772766113281
   1004    -1.279052495956421  0.9157729148864746  0.29420432448387146
   1005    -0.13818690180778503  0.6551343202590942  -0.462106853723526
   1006    -1.2405709028244019  1.2861684560775757  0.36120620369911194
   1007    0.6416231393814087  0.08625256270170212  0.26244407892227173
   1008    -1.0897725820541382  1.008383870124817  -0.01948573999106884
   1009    -1.4191383123397827  1.4532769918441772  0.8532674908638
   1010    0.13250982761383057  0.7074519395828247  -0.3379802703857422
   1011    -0.7994120121002197  0.004029942210763693  0.5360678434371948
   1012    -0.1774817854166031  0.15577632188796997  -0.29289475083351135
   1013    -0.5861403346061707  1.0556000471115112  0.4370650351047516
   1014    0.28042885661125183  -0.13741210103034973  -0.19816014170646667
   1015    0.16120927035808563  0.1969190090894699  0.2503458261489868
   1016    -0.5846390724182129  0.7540093660354614  -0.22451388835906982
   1017    -1.5034785270690918  1.711298942565918  0.2234494537115097
   1018    -1.2364755868911743  1.6099987030029297  0.150013267993927
   1019    0.004101111087948084  0.6685928106307983  0.7653099298477173
   1020    -1.211509346961975  1.7633521556854248  0.06104861944913864
   1021    -0.02806752175092697  0.9874475002288818  0.004269225522875786
   1022    0.07357410341501236  0.10152985900640488  -0.066551573574543
   1023    -0.7711902856826782  -0.023819666355848312  0.2508222758769989
   1024    0.19019578397274017  0.3492034375667572  0.6573227047920227
   1025    0.2168106734752655  1.1866551637649536  -0.04840163514018059
   1026    -0.8323328495025635  0.6042882800102234  0.23356091976165771
   1027    -0.1495395004749298  1.119663953781128  0.4075854420661926
   1028    -0.5159827470779419  1.0827637910842896  0.03441872447729111
   1029    -0.85080885887146  0.21895931661128998  0.06235639750957489
   1030    0.14915986359119415  0.0652422085404396  0.5688812732696533
   1031    -1.42894446849823  2.0758423805236816  -0.1349765807390213
   1032    0.23792406916618347  0.38327908515930176  -0.2653498351573944
   1033    -0.8353096842765808  1.0572423934936523  -0.1387721449136734
   1034    -0.44305840134620667  0.7266604900360107  -0.4910202920436859
   1035    -0.2678452134132385  0.7546772360801697  -0.5589564442634583
   1036    -0.9846041798591614  0.3761334717273712  0.30515527725219727
   1037    -1.6561509370803833  1.5970799922943115  0.20331387221813202
   1038    0.016262667253613472  0.15894126892089844  0.8041025400161743
   1039    -0.2886813282966614  1.2652453184127808  0.5234078764915466
   1040    -1.2945468425750732  1.9381182193756104  0.5673249959945679
   1041    -1.4054681062698364  1.0929887294769287  0.4554862082004547
   1042    -1.1298809051513672  0.5672821402549744  0.04405289143323898
   1043    0.8813945651054382  0.1105448380112648  0.08625806123018265
   1044    -1.1995214223861694  0.8506208658218384  0.5888507962226868
   1045    -0.6600374579429626  0.8961483240127563  0.6343209743499756
   1046    -0.9847167730331421  0.7416905164718628  0.6773863434791565
   1047    0.758903443813324  -0.017362354323267937  0.023717142641544342
   1048    0.33323293924331665  0.4159945845603943  -0.4156840145587921
   1049    -1.541264295578003  1.3710299730300903  0.6932483315467834
   1050    -1.007215976715088  -0.02700786106288433  0.002235937863588333
   1051    0.3359390199184418  -0.02049090526998043  0.2115774154663086
   1052    -0.12587113678455353  0.9440888166427612  -0.23700551688671112
   1053    0.05692356824874878  0.8040422201156616  0.9094791412353516
   1054    -1.6757689714431763  1.862058162689209  0.4965003728866577
   1055    -1.058007836341858  0.48791396617889404  -0.13158227503299713
   1056    -0.35600388050079346  0.46926212310791016  -0.2352214902639389
   1057    -0.2633930444717407  0.4106507897377014  0.80878746509552
   1058    -0.1099279522895813  1.1152849197387695  -0.29116305708885193
   1059    0.378217488527298  0.12197180837392807  -0.17064011096954346
   1060    -1.343774437904358  1.8629119396209717  -0.058472130447626114
   1061    -1.2278505563735962  0.5306699275970459  -0.18028217554092407
   1062    0.042977724224328995  1.2655669450759888  0.5306113958358765
   1063    -1.446778655052185  1.9012987613677979  0.13078469038009644
   1064    0.1235656663775444  1.33640718460083  0.22417302429676056
   1065    -0.5467143058776855  0.6400463581085205  -0.3649352192878723
   1066    -0.852489709854126  -0.15344399213790894  0.670475959777832
   1067    -1.4685695171356201  0.7120444178581238  0.23710545897483826
   1068    0.13932038843631744  0.13146845996379852  -0.33675798773765564
   1069    0.18184317648410797  0.2962493300437927  -0.4287821054458618
   1070    -1.2222447395324707  1.4760749340057373  0.5620155334472656
   1071    0.15480859577655792  0.7475866079330444  -0.4961508810520172
   1072    -0.13683298230171204  0.49550101161003113  0.9525289535522461
   1073    -0.7239726781845093  1.2638955116271973  0.28622254729270935
   1074    -0.09799644351005554  -0.008199121803045273  0.749491810798645
   1075    -0.9979464411735535  0.9211832880973816  -0.2303013950586319
   1076    -1.0663856267929077  1.4127262830734253  0.2047329843044281
   1077    0.34331682324409485  -0.07720986753702164  0.5189530849456787
   1078    -0.4917779266834259  -0.05974583700299263  0.681611955165863
   1079    -1.3801621198654175  1.2935642004013062  0.5556172728538513
   1080    -0.8601635694503784  1.2921546697616577  -0.028160100802779198
   1081    0.18574342131614685  0.5165471434593201  0.8530082702636719
   1082    0.9352734684944153  0.19771932065486908  0.3491653800010681
   1083    -0.9408137798309326  0.39884722232818604  0.5280410647392273
   1084    -0.22383779287338257  0.3580901026725769  0.9553141593933105
   1085    0.4677950143814087  1.095491647720337  0.3731665015220642
   1086    -1.375868558883667  1.6808804273605347  -0.00017583159205969423
   1087    0.394659161567688  -0.10494434833526611  0.04830164462327957
   1088    -1.4242236614227295  0.5989869236946106  0.43941667675971985
   1089    -0.420197457075119  0.11118486523628235  -0.24153539538383484
   1090    -0.6192217469215393  0.9905989766120911  -0.21683764457702637
   1091    0.42987897992134094  0.057614244520664215  -0.3058202862739563
   1092    1.0236968994140625  0.13498760759830475  0.20041771233081818
   1093    -1.3876757621765137  1.0052696466445923  0.027462072670459747
   1094    -0.2599561810493469  0.1537802666425705  0.7998184561729431
   1095    -1.1994938850402832  1.8915026187896729  0.23720964789390564
   1096    -0.41946524381637573  -0.15519776940345764  0.9071462154388428
   1097    -0.6539168357849121  -0.20170621573925018  -0.47174912691116333
   1098    -1.3672088384628296  0.5815735459327698  0.00881693884730339
   1099    0.33436328172683716  0.9262967705726624  -0.2533261477947235
   1100    0.6065986752510071  0.0018294394249096513  -0.012110620737075806
   1101    0.5038718581199646  0.1511276364326477  0.4973844289779663
   1102    -1.0565695762634277  1.3280137777328491  -0.06728753447532654
   1103    -1.6468514204025269  1.5004732608795166  0.03988927602767944
   1104    -0.22407548129558563  0.7619843482971191  0.9065590500831604
   1105    0.02632227912545204  -0.06344148516654968  0.599945068359375
   1106    0.17735423147678375  0.5452781319618225  -0.4684828817844391
   1107    -0.4295912981033325  0.9997759461402893  -0.31093308329582214
   1108    0.06825670599937439  0.9425415396690369  0.5754860043525696
   1109    -1.0270259380340576  0.28257593512535095  0.11647820472717285
   1110    0.654674768447876  -0.036436714231967926  0.4216841459274292
   1111    -0.39531999826431274  -0.1868898868560791  -0.4665714204311371
   1112    -0.6536883115768433  1.1888402700424194  -0.1494009792804718
   1113    0.42645129561424255  1.0734262466430664  0.5920668244361877
   1114    -0.9161074161529541  0.9538074135780334  0.29681214690208435
   1115    -0.34056663513183594  0.6203437447547913  0.35414010286331177
   1116    0.3242870271205902  0.9734216332435608  0.7535794973373413
   1117    -0.3106650412082672  0.035623207688331604  -0.4105415642261505
   1118    0.16942191123962402  0.15184615552425385  0.8897673487663269
   1119    -0.01739449054002762  0.3063448965549469  0.939448893070221
   1120    -0.4512779712677002  0.5189705491065979  -0.5364305973052979
   1121    -0.4111713469028473  0.5731725692749023  0.6265994310379028
   1122    -0.3841935098171234  0.29251840710639954  -0.4082522690296173
   1123    -1.2979124784469604  0.9541854858398438  0.6419299244880676
   1124    -0.02596420608460903  0.7969312071800232  -0.5145742297172546
   1125    -1.0624626874923706  1.9863792657852173  0.09693493694067001
   1126    -1.1385663747787476  0.9618005752563477  0.7036805152893066
   1127    -0.843449056148529  -0.1989767849445343  0.10641884058713913
   1128    0.40730011463165283  0.21824871003627777  -0.3552042543888092
   1129    -0.06255760788917542  -0.014728449285030365  -0.20232513546943665
   1130    -1.330496907234192  1.2667803764343262  0.09965876489877701
   1131    -1.6620514392852783  1.784885287284851  0.34465450048446655
   1132    -0.9071310758590698  0.957340657711029  0.6362529397010803
   1133    0.5435295701026917  -0.1132218986749649  0.19018340110778809
   1134    -0.614142894744873  0.008292515762150288  0.5582008957862854
   1135    0.33235394954681396  -0.16434592008590698  -0.06683703511953354
   1136    -1.299221158027649  1.1749378442764282  -0.08084496855735779
   1137    -0.10700798034667969  0.37783047556877136  -0.4472208321094513
   1138    0.15756045281887054  -0.12314942479133606  0.26406824588775635
   1139    -1.3947407007217407  1.4231117963790894  -0.004479410592466593
   1140    1.0336167812347412  0.3210577964782715  0.2733757495880127
   1141    0.5499184727668762  0.7570571303367615  0.6216588020324707
   1142    -0.6591604351997375  1.3017884492874146  0.02548711746931076
   1143    -1.0966267585754395  1.697534441947937  0.13373759388923645
   1144    0.11580080538988113  1.0194621086120605  -0.19549693167209625
   1145    0.5912841558456421  0.31426218152046204  0.6091386079788208
   1146    -1.2336411476135254  1.7751495838165283  0.4739725589752197
   1147    -1.688474416732788  1.3963998556137085  0.7859464287757874
   1148    -0.39460042119026184  1.0938647985458374  0.621699869632721
   1149    -0.5924591422080994  0.554676353931427  -0.45161211490631104
   1150    -0.822646975517273  2.1052157878875732  -0.03280779346823692
   1151    0.3467482328414917  0.22814376652240753  0.7541479468345642
   1152    -0.03481799736618996  1.102990746498108  0.6875476837158203
   1153    0.4898222088813782  0.974997878074646  0.05071390047669411
   1154    -1.5158684253692627  1.2877305746078491  0.3607070744037628
   1155    -0.8189377188682556  0.635671079158783  -0.12377744913101196
   1156    -0.1589278280735016  1.2363306283950806  -0.038491930812597275
   1157    -0.06620793789625168  0.9994683265686035  -0.3443901538848877
   1158    -1.4804980754852295  1.6981676816940308  0.5997439026832581
   1159    0.1663956195116043  1.0128542184829712  0.2689693570137024
   1160    -1.2569745779037476  0.8578128218650818  -0.1217033788561821
   1161    0.2974146902561188  1.2669509649276733  0.4719351828098297
   1162    0.43526485562324524  1.1965874433517456  -0.042589008808135986
   1163    -0.7060911059379578  -0.06586822867393494  -0.06941059976816177
   1164    -1.133812427520752  0.5525543093681335  0.5930972099304199
   1165    0.3102135956287384  0.4953259825706482  0.8600049018859863
   1166    -1.007655382156372  -0.15203963220119476  0.6114584803581238
   1167    0.429755836725235  0.8188197016716003  0.8190266489982605
   1168    -1.47982919216156  1.4106848239898682  0.9618772268295288
   1169    -1.6412972211837769  1.7450963258743286  0.1761009693145752
   1170    -0.5066787004470825  0.3443286120891571  -0.2621394991874695
   1171    -1.2643769979476929  0.6813647747039795  0.6834501028060913
   1172    -1.4732383489608765  1.8900054693222046  0.6237730383872986
   1173    -0.785065233707428  0.49785512685775757  -0.052219655364751816
   1174    0.03900527581572533  1.2440866231918335  0.6883498430252075
   1175    0.3385026752948761  -0.16796012222766876  0.19316484034061432
   1176    -0.9549874067306519  2.2106707096099854  0.017269084230065346
   1177    0.051447633653879166  -0.19085770845413208  0.8259199261665344
   1178    -1.2000449895858765  0.3790522515773773  0.0599946565926075
   1179    -1.2018903493881226  0.8177459239959717  0.749354362487793
   1180    -1.15385901927948  -0.25818970799446106  0.2832852303981781
   1181    -0.8355873823165894  1.2409136295318604  0.49282920360565186
   1182    -0.033665940165519714  0.16840212047100067  -0.45351237058639526
   1183    -0.7187970280647278  0.13946831226348877  0.6220731139183044
   1184    -1.3925188779830933  1.9546738862991333  -0.18050514161586761
   1185    -0.8207484483718872  -0.13481095433235168  0.40574684739112854
   1186    0.5263385772705078  0.21289318799972534  -0.2438780516386032
   1187    -1.4703853130340576  0.9457278847694397  0.559216320514679
   1188    -0.5842086672782898  1.2004573345184326  0.562842607498169
   1189    -0.4188026189804077  1.2553377151489258  0.25621747970581055
   1190    -1.2035528421401978  1.4656081199645996  0.019605133682489395
   1191    -0.8348740339279175  0.5136080384254456  0.6658904552459717
   1192    0.3264720141887665  0.10229259729385376  0.8286272883415222
   1193    -1.1514332294464111  1.6638323068618774  0.3259134888648987
   1194    -1.1666926145553589  1.9596987962722778  0.4275745749473572
   1195    -1.3625904321670532  1.795954942703247  0.562316358089447
   1196    -1.0498480796813965  1.1059846878051758  0.5676109194755554
   1197    -1.1239829063415527  1.3500134944915771  0.5682107210159302
   1198    -0.7974218726158142  -0.15951527655124664  0.2703629434108734
   1199    -1.0483481884002686  1.5485050678253174  0.10317462682723999
   1200    -0.6831952333450317  -0.22411832213401794  0.4527078866958618
   1201    -0.6422877311706543  0.5220099091529846  -0.19861795008182526
   1202    -0.5270121693611145  0.6765554547309875  0.7162084579467773
   1203    0.03043498285114765  0.6866011023521423  1.0153592824935913
   1204    -0.6634299755096436  0.8292866945266724  0.7635442614555359
   1205    -1.070363998413086  1.5230379104614258  0.47092631459236145
   1206    0.6786747574806213  1.0006948709487915  0.06175580248236656
   1207    0.10542761534452438  -0.007420498877763748  0.7662649750709534
   1208    -1.6514993906021118  1.3560584783554077  0.1436643749475479
   1209    -0.9267473220825195  -0.0462423600256443  0.567115068435669
   1210    0.16536322236061096  -0.08961029350757599  0.6733745336532593
   1211    -1.0443904399871826  -0.15151646733283997  0.7544323205947876
   1212    -0.8823637962341309  0.14205564558506012  0.5838881731033325
   1213    0.12062156200408936  0.13599660992622375  -0.48212453722953796
   1214    0.4588524103164673  0.48152419924736023  0.7296515703201294
   1215    -0.598153293132782  0.5256122946739197  -0.3229733109474182
   1216    -0.08488620072603226  1.425505518913269  0.27675971388816833
   1217    0.1670604646205902  -0.13580183684825897  0.00551533093675971
   1218    -1.027849555015564  1.1326887607574463  -0.17753742635250092
   1219    -0.1653614491224289  -0.09963081032037735  0.8193987607955933
   1220    -0.7479373812675476  0.2708010673522949  0.38629350066185
   1221    -0.5723724365234375  -0.1707819402217865  0.8707720637321472
   1222    -0.38106951117515564  1.1099458932876587  0.40869611501693726
   1223    -1.025093913078308  1.6007107496261597  0.2456727772951126
   1224    -0.7465848922729492  0.04294252768158913  -0.12068428099155426
   1225    -0.21396279335021973  0.5215013027191162  -0.5883251428604126
   1226    -0.998340368270874  2.102588653564453  0.08255266398191452
   1227    -0.5172786116600037  0.20708699524402618  -0.2597402036190033
   1228    0.10348258912563324  1.3382658958435059  -0.10748130083084106
   1229    -0.8900140523910522  1.1365858316421509  0.6451888680458069
   1230    -1.0054460763931274  0.9000927209854126  0.7515162825584412
   1231    -0.2696855664253235  0.2616157829761505  0.9740390181541443
   1232    -1.5770944356918335  0.8258820176124573  0.38515135645866394
   1233    -1.0093207359313965  -0.08922350406646729  0.6870079040527344
   1234    -1.3128489255905151  1.2091805934906006  0.633613646030426
   1235    -0.6090038418769836  0.6606884002685547  0.001538777374662459
   1236    -0.9912583231925964  0.5723175406455994  0.7076143622398376
   1237    -0.26319512724876404  1.0360901355743408  0.15912915766239166
   1238    -1.086574673652649  1.8923571109771729  0.07068636268377304
   1239    0.9847283959388733  0.17387022078037262  0.03659188374876976
   1240    -0.20926126837730408  0.18209974467754364  -0.527194619178772
   1241    -1.4743510484695435  0.5366445779800415  0.2779598534107208
   1242    0.12902948260307312  0.5583853721618652  1.006508231163025
   1243    -0.8264329433441162  0.6817542910575867  0.6847612857818604
   1244    -0.03713497892022133  0.09698013216257095  0.9556192755699158
   1245    -1.4875918626785278  1.3016225099563599  0.5027655363082886
   1246    -0.6490221619606018  0.6059158444404602  0.46066200733184814
   1247    -1.435173511505127  1.2141801118850708  0.666965901851654
   1248    -0.5873202681541443  0.6576414108276367  -0.4974764287471771
   1249    0.5011921525001526  -0.12853828072547913  0.3774469494819641
   1250    -1.4421718120574951  1.464815616607666  0.5715480446815491
   1251    -0.8481638431549072  0.12107668817043304  0.40647822618484497
   1252    0.04930969700217247  0.292749285697937  -0.518567681312561
   1253    -1.4068400859832764  1.2841140031814575  -0.016450310125947
   1254    -0.3274718225002289  0.5664950609207153  0.9258427619934082
   1255    -0.8346906304359436  -0.20294791460037231  0.7645388245582581
   1256    0.2170579731464386  0.3371252715587616  0.8945696949958801
   1257    -0.7566040754318237  -0.23526683449745178  0.13010059297084808
   1258    -0.8732364773750305  1.3882936239242554  0.24456380307674408
   1259    0.20949484407901764  1.0944939851760864  0.6218529343605042
   1260    -0.22710955142974854  0.07579127699136734  0.9059489369392395
   1261    0.6726593971252441  1.1087775230407715  0.18830232322216034
   1262    -0.5315707921981812  0.9688012599945068  0.726509690284729
   1263    -0.18325650691986084  0.8745687007904053  0.6597664952278137
   1264    0.3932346999645233  -0.20931687951087952  0.029144903644919395
   1265    -0.8817795515060425  0.7451832294464111  0.44230619072914124
   1266    -1.065157175064087  0.690837025642395  0.7870493531227112
   1267    -0.9714361429214478  0.1322370171546936  0.12286320328712463
   1268    -0.7436676025390625  -0.0847439169883728  0.11443847417831421
   1269    -0.20469313859939575  1.074413537979126  0.7278614044189453
   1270    0.32940492033958435  -0.1408950537443161  0.6780515909194946
   1271    0.28916043043136597  1.425421118736267  0.3594513535499573
   1272    -1.4988605976104736  1.1428464651107788  0.18723060190677643
   1273    0.6519200801849365  0.9328501224517822  0.3590993583202362
   1274    -0.13856235146522522  0.6585416793823242  -0.6220860481262207
   1275    -0.4187128245830536  0.8413764834403992  0.5054290294647217
   1276    -1.416955828666687  0.8358197212219238  0.6806523203849792
   1277    -0.9492520093917847  0.6856569647789001  0.7735414505004883
   1278    -0.04692940041422844  1.0611350536346436  0.21605440974235535
   1279    -1.142637014389038  0.3823302388191223  0.468715101480484
   1280    -0.42480894923210144  1.2471518516540527  0.6007932424545288
   1281    -1.43485426902771  0.8992283940315247  -0.1137777641415596
   1282    0.3331012427806854  1.2171907424926758  0.6355541944503784
   1283    -1.346487045288086  1.687083125114441  0.6607765555381775
   1284    -0.011999235488474369  0.7008317112922668  0.22497588396072388
   1285    0.2297004759311676  0.9259610176086426  0.025801479816436768
   1286    0.4458565413951874  0.031862251460552216  0.619930624961853
   1287    -0.7558548450469971  0.602729082107544  -0.2570579946041107
   1288    -0.3246327042579651  -0.011727702803909779  0.7463522553443909
   1289    0.11617349833250046  0.3062797486782074  0.9917799830436707
   1290    -1.2817596197128296  0.41588908433914185  0.2690829932689667
   1291    -1.6225333213806152  1.7939434051513672  0.6569100618362427
   1292    -0.9495106339454651  1.4837040901184082  0.17723889648914337
   1293    -0.1708214282989502  1.4812144041061401  0.40802621841430664
   1294    0.5131435990333557  1.0918446779251099  -0.1507532149553299
   1295    -1.6445472240447998  1.3847548961639404  0.5231307744979858
   1296    0.3265320062637329  1.093915581703186  0.10288450866937637
   1297    0.26874831318855286  0.010512705892324448  -0.3604605793952942
   1298    0.8716181516647339  0.016408609226346016  0.2739063501358032
   1299    -0.5917549133300781  0.7480558753013611  0.7655631899833679
   1300    0.39317411184310913  0.7026943564414978  -0.2978469729423523
   1301    -1.0021799802780151  0.7883646488189697  0.7819705009460449
   1302    -1.6461342573165894  1.9382036924362183  0.28710299730300903
   1303    0.09105639159679413  0.26509761810302734  0.8592140674591064
   1304    -0.2017638236284256  0.6094553470611572  0.7576518654823303
   1305    0.7131932973861694  0.15294723212718964  0.43538305163383484
   1306    -0.04517747089266777  0.4483868479728699  -0.040129147469997406
   1307    -0.06391584873199463  0.41041702032089233  0.41950443387031555
   1308    -0.03344492241740227  0.43024951219558716  0.7300423979759216
   1309    0.5169478058815002  -0.21880951523780823  0.14759424328804016
   1310    0.5539359450340271  0.3867478370666504  0.7165866494178772
   1311    0.11411179602146149  -0.06282033026218414  -0.2362101674079895
   1312    -1.5508522987365723  0.6085879802703857  0.37447789311408997
   1313    0.26579657196998596  -0.16052237153053284  0.3911939859390259
   1314    -0.6074763536453247  0.6318811774253845  -0.2531420886516571
   1315    -0.6664817929267883  0.7073100209236145  0.6076332926750183
   1316    -1.217042326927185  1.0123353004455566  -0.19729575514793396
   1317    -1.562955379486084  1.2488003969192505  0.11942600458860397
   1318    -0.12305260449647903  0.17366500198841095  0.8588628172874451
   1319    -1.4181095361709595  1.078926920890808  0.6043201684951782
   1320    -0.01591138355433941  -0.10416153073310852  0.762235701084137
   1321    0.2929825186729431  0.60563725233078  0.4625519812107086
   1322    0.017716465517878532  0.026641279458999634  -0.4645289182662964
   1323    -0.18910019099712372  1.2987855672836304  0.3678979277610779
   1324    -0.26969122886657715  0.730829119682312  -0.004779846873134375
   1325    -1.3784681558609009  1.2590411901474  0.4106859266757965
   1326    0.022182583808898926  1.1645703315734863  -0.06450217217206955
   1327    0.12494949996471405  1.063576102256775  0.03131105378270149
   1328    0.2645581066608429  0.5401098132133484  0.6652047038078308
   1329    -0.04623134434223175  -0.08174104243516922  -0.35455337166786194
   1330    -0.4160003364086151  0.6548850536346436  -0.22009798884391785
   1331    -0.4349811375141144  0.8233810067176819  0.7431594729423523
   1332    -1.1388264894485474  0.5801107287406921  0.7629863619804382
   1333    -0.3138396143913269  0.6084575653076172  -0.47219061851501465
   1334    0.5345067977905273  0.618772566318512  0.7522523999214172
   1335    -1.4540901184082031  1.4133775234222412  0.20000208914279938
   1336    -0.35032230615615845  0.4585239887237549  -0.646338701248169
   1337    -1.3383244276046753  1.4522117376327515  0.4041379988193512
   1338    -1.56312894821167  0.8935859203338623  0.18576203286647797
   1339    0.9548484683036804  0.27889612317085266  0.1466614454984665
   1340    -0.11880356073379517  0.3712528645992279  0.843652069568634
   1341    -0.9344871640205383  0.08647312223911285  0.48717108368873596
   1342    -1.3241677284240723  1.4282432794570923  0.7024396657943726
   1343    -1.0157114267349243  1.2449321746826172  0.3517976403236389
   1344    0.43306347727775574  0.6098414063453674  0.5914031863212585
   1345    -0.06557036191225052  -0.0856834426522255  0.855066180229187
   1346    -0.12484405934810638  1.0768855810165405  -0.11693006753921509
   1347    -0.0029249435756355524  1.4569740295410156  0.4532793164253235
   1348    0.33427324891090393  1.0407814979553223  -0.09725923091173172
   1349    0.1194174587726593  -0.06359358131885529  0.4425032436847687
   1350    -0.5591927170753479  0.597197413444519  0.5868463516235352
   1351    -1.3657363653182983  1.0139590501785278  -0.18051429092884064
   1352    -0.07840964198112488  0.06403178721666336  -0.3565889894962311
   1353    -0.5102909803390503  0.8387120366096497  0.8096470236778259
   1354    -0.3194652199745178  0.46716827154159546  -0.5048069357872009
   1355    -1.2135742902755737  1.5220543146133423  0.6993176937103271
   1356    -1.2148215770721436  1.639351487159729  0.6041037440299988
   1357    -1.3358443975448608  1.5612269639968872  0.5901190042495728
