1996  0
   0    622 677 31  -1
   1    814 820 694  -1
   2    368 546 125  -1
   3    843 125 546  -1
   4    362 427 181  -1
   5    303 201 703  -1
   6    153 755 939  -1
   7    206 86 314  -1
   8    387 642 789  -1
   9    844 642 387  -1
   10    246 552 7  -1
   11    807 416 971  -1
   12    254 882 255  -1
   13    590 159 532  -1
   14    310 14 431  -1
   15    205 206 404  -1
   16    163 600 284  -1
   17    479 177 512  -1
   18    240 779 711  -1
   19    913 252 800  -1
   20    234 83 885  -1
   21    892 269 46  -1
   22    979 576 39  -1
   23    901 324 47  -1
   24    633 953 973  -1
   25    300 379 220  -1
   26    107 300 220  -1
   27    420 677 772  -1
   28    930 757 102  -1
   29    869 118 706  -1
   30    119 884 872  -1
   31    471 35 253  -1
   32    515 956 8  -1
   33    232 900 898  -1
   34    111 375 794  -1
   35    115 675 854  -1
   36    45 186 270  -1
   37    45 739 186  -1
   38    488 190 771  -1
   39    465 771 190  -1
   40    327 391 19  -1
   41    742 351 117  -1
   42    33 269 892  -1
   43    51 275 848  -1
   44    213 834 917  -1
   45    250 822 110  -1
   46    232 503 900  -1
   47    232 186 503  -1
   48    571 13 62  -1
   49    501 570 340  -1
   50    174 383 951  -1
   51    174 951 175  -1
   52    854 116 115  -1
   53    659 342 656  -1
   54    611 767 71  -1
   55    520 611 71  -1
   56    945 725 355  -1
   57    402 37 738  -1
   58    402 390 37  -1
   59    241 435 436  -1
   60    286 984 395  -1
   61    900 707 188  -1
   62    951 955 175  -1
   63    491 920 586  -1
   64    145 859 386  -1
   65    725 726 918  -1
   66    529 315 564  -1
   67    343 456 247  -1
   68    343 384 456  -1
   69    756 749 346  -1
   70    124 125 519  -1
   71    311 519 125  -1
   72    983 108 468  -1
   73    283 312 796  -1
   74    105 294 181  -1
   75    813 671 187  -1
   76    376 289 392  -1
   77    376 811 289  -1
   78    103 247 456  -1
   79    634 247 103  -1
   80    91 948 748  -1
   81    91 451 948  -1
   82    758 354 832  -1
   83    583 343 55  -1
   84    590 532 235  -1
   85    209 470 422  -1
   86    560 374 116  -1
   87    372 87 288  -1
   88    909 421 142  -1
   89    687 505 65  -1
   90    325 834 508  -1
   91    712 408 934  -1
   92    343 186 384  -1
   93    358 486 559  -1
   94    985 692 555  -1
   95    35 225 803  -1
   96    56 919 268  -1
   97    575 139 867  -1
   98    618 10 594  -1
   99    496 911 284  -1
   100    496 667 911  -1
   101    356 495 128  -1
   102    705 176 41  -1
   103    183 775 310  -1
   104    506 70 379  -1
   105    378 779 467  -1
   106    962 315 529  -1
   107    682 92 945  -1
   108    963 682 945  -1
   109    712 320 167  -1
   110    145 921 247  -1
   111    298 247 921  -1
   112    95 744 580  -1
   113    92 566 832  -1
   114    433 98 615  -1
   115    616 731 414  -1
   116    409 308 366  -1
   117    150 294 788  -1
   118    469 198 510  -1
   119    153 63 452  -1
   120    902 253 727  -1
   121    450 901 323  -1
   122    494 901 450  -1
   123    741 183 702  -1
   124    10 824 549  -1
   125    436 10 549  -1
   126    291 697 322  -1
   127    366 25 710  -1
   128    529 566 819  -1
   129    161 405 856  -1
   130    161 423 405  -1
   131    569 429 78  -1
   132    620 657 389  -1
   133    882 848 643  -1
   134    183 741 97  -1
   135    546 48 175  -1
   136    455 370 165  -1
   137    250 969 701  -1
   138    311 843 49  -1
   139    705 41 668  -1
   140    461 648 452  -1
   141    334 994 136  -1
   142    661 229 445  -1
   143    305 306 541  -1
   144    256 431 832  -1
   145    453 431 256  -1
   146    669 867 879  -1
   147    234 885 611  -1
   148    831 234 611  -1
   149    305 149 596  -1
   150    611 885 260  -1
   151    338 107 3  -1
   152    792 280 75  -1
   153    9 231 439  -1
   154    558 347 162  -1
   155    452 63 461  -1
   156    395 544 959  -1
   157    395 959 59  -1
   158    312 587 16  -1
   159    687 733 505  -1
   160    818 62 584  -1
   161    79 419 401  -1
   162    736 881 517  -1
   163    248 804 604  -1
   164    998 352 768  -1
   165    29 326 242  -1
   166    169 114 977  -1
   167    471 225 35  -1
   168    498 186 583  -1
   169    224 753 641  -1
   170    743 236 9  -1
   171    606 821 373  -1
   172    504 258 613  -1
   173    823 189 662  -1
   174    472 112 308  -1
   175    74 474 825  -1
   176    226 21 84  -1
   177    202 749 756  -1
   178    58 661 189  -1
   179    933 189 661  -1
   180    606 605 283  -1
   181    673 506 729  -1
   182    923 938 306  -1
   183    669 879 44  -1
   184    204 88 806  -1
   185    844 49 955  -1
   186    177 430 791  -1
   187    384 739 456  -1
   188    327 586 465  -1
   189    274 733 721  -1
   190    274 505 733  -1
   191    823 302 189  -1
   192    293 706 960  -1
   193    290 368 124  -1
   194    125 124 368  -1
   195    451 239 782  -1
   196    60 239 451  -1
   197    268 919 980  -1
   198    982 39 482  -1
   199    309 170 792  -1
   200    724 592 91  -1
   201    3 737 928  -1
   202    571 62 502  -1
   203    388 291 965  -1
   204    210 816 441  -1
   205    84 595 140  -1
   206    488 731 61  -1
   207    341 802 42  -1
   208    965 291 286  -1
   209    624 354 918  -1
   210    726 624 918  -1
   211    293 582 357  -1
   212    873 565 752  -1
   213    832 873 752  -1
   214    391 327 96  -1
   215    167 320 479  -1
   216    14 445 627  -1
   217    106 549 824  -1
   218    106 824 914  -1
   219    310 601 702  -1
   220    282 795 182  -1
   221    873 14 627  -1
   222    873 431 14  -1
   223    953 229 81  -1
   224    14 661 445  -1
   225    14 185 661  -1
   226    716 371 64  -1
   227    550 812 975  -1
   228    336 156 348  -1
   229    437 99 588  -1
   230    296 547 363  -1
   231    172 228 697  -1
   232    90 793 967  -1
   233    195 374 560  -1
   234    574 372 835  -1
   235    863 52 168  -1
   236    863 405 52  -1
   237    597 66 923  -1
   238    961 56 393  -1
   239    553 452 926  -1
   240    780 839 398  -1
   241    743 9 439  -1
   242    212 861 170  -1
   243    314 195 560  -1
   244    140 275 941  -1
   245    276 352 998  -1
   246    243 990 817  -1
   247    229 953 633  -1
   248    572 693 197  -1
   249    883 512 513  -1
   250    137 512 883  -1
   251    356 128 777  -1
   252    933 300 944  -1
   253    933 97 300  -1
   254    741 379 97  -1
   255    641 994 67  -1
   256    835 464 781  -1
   257    973 953 683  -1
   258    40 973 683  -1
   259    848 275 643  -1
   260    950 514 422  -1
   261    141 511 735  -1
   262    14 310 185  -1
   263    12 574 835  -1
   264    799 201 303  -1
   265    872 445 633  -1
   266    944 189 933  -1
   267    944 662 189  -1
   268    612 614 424  -1
   269    342 659 887  -1
   270    683 953 81  -1
   271    835 751 464  -1
   272    118 191 61  -1
   273    775 183 97  -1
   274    227 967 342  -1
   275    565 627 732  -1
   276    565 873 627  -1
   277    185 310 775  -1
   278    406 680 578  -1
   279    107 338 442  -1
   280    427 705 668  -1
   281    661 185 933  -1
   282    286 563 965  -1
   283    477 840 218  -1
   284    884 732 627  -1
   285    157 193 812  -1
   286    77 849 557  -1
   287    884 445 872  -1
   288    884 627 445  -1
   289    233 368 290  -1
   290    605 101 964  -1
   291    732 884 618  -1
   292    594 732 618  -1
   293    725 93 427  -1
   294    119 872 633  -1
   295    119 633 973  -1
   296    618 824 10  -1
   297    484 824 618  -1
   298    507 598 599  -1
   299    308 112 76  -1
   300    484 914 824  -1
   301    484 599 914  -1
   302    136 994 223  -1
   303    259 375 694  -1
   304    540 801 341  -1
   305    991 608 837  -1
   306    564 566 529  -1
   307    277 713 469  -1
   308    31 677 420  -1
   309    106 144 549  -1
   310    46 269 478  -1
   311    558 85 347  -1
   312    896 474 74  -1
   313    459 28 852  -1
   314    670 816 210  -1
   315    910 86 205  -1
   316    366 710 228  -1
   317    151 960 297  -1
   318    939 168 143  -1
   319    751 372 288  -1
   320    268 144 523  -1
   321    694 820 0  -1
   322    601 212 309  -1
   323    504 212 601  -1
   324    255 947 130  -1
   325    983 509 178  -1
   326    542 833 755  -1
   327    25 308 76  -1
   328    977 29 242  -1
   329    709 708 443  -1
   330    833 863 168  -1
   331    538 404 271  -1
   332    357 897 358  -1
   333    345 868 761  -1
   334    813 575 669  -1
   335    982 833 39  -1
   336    300 97 379  -1
   337    325 248 846  -1
   338    982 863 833  -1
   339    561 197 329  -1
   340    39 373 821  -1
   341    833 373 39  -1
   342    436 549 241  -1
   343    482 863 982  -1
   344    482 405 863  -1
   345    520 866 113  -1
   346    293 960 20  -1
   347    223 510 686  -1
   348    683 252 40  -1
   349    419 990 997  -1
   350    419 817 990  -1
   351    416 987 180  -1
   352    416 180 720  -1
   353    961 425 56  -1
   354    647 56 425  -1
   355    978 785 273  -1
   356    48 368 233  -1
   357    546 368 48  -1
   358    22 759 784  -1
   359    130 681 255  -1
   360    581 940 580  -1
   361    437 336 348  -1
   362    93 918 132  -1
   363    93 132 999  -1
   364    99 475 433  -1
   365    274 721 43  -1
   366    275 179 941  -1
   367    163 774 859  -1
   368    113 611 520  -1
   369    154 614 612  -1
   370    855 154 612  -1
   371    222 616 414  -1
   372    967 389 342  -1
   373    551 195 314  -1
   374    536 801 540  -1
   375    427 93 999  -1
   376    755 833 168  -1
   377    706 118 960  -1
   378    441 135 266  -1
   379    20 960 151  -1
   380    850 961 393  -1
   381    428 758 176  -1
   382    428 176 705  -1
   383    391 108 19  -1
   384    136 223 686  -1
   385    594 41 732  -1
   386    400 41 594  -1
   387    732 41 752  -1
   388    41 968 752  -1
   389    427 999 705  -1
   390    285 265 533  -1
   391    707 324 188  -1
   392    174 48 233  -1
   393    174 175 48  -1
   394    188 898 900  -1
   395    188 494 898  -1
   396    103 709 1  -1
   397    103 708 709  -1
   398    949 73 151  -1
   399    608 510 198  -1
   400    925 128 203  -1
   401    298 343 247  -1
   402    597 304 66  -1
   403    67 892 16  -1
   404    250 110 969  -1
   405    951 383 764  -1
   406    844 386 49  -1
   407    600 247 634  -1
   408    600 634 284  -1
   409    486 678 191  -1
   410    60 91 592  -1
   411    503 233 290  -1
   412    736 517 102  -1
   413    114 392 289  -1
   414    52 754 168  -1
   415    450 911 667  -1
   416    644 279 356  -1
   417    359 462 871  -1
   418    359 221 462  -1
   419    49 774 311  -1
   420    583 186 343  -1
   421    573 798 797  -1
   422    600 145 247  -1
   423    600 859 145  -1
   424    163 859 600  -1
   425    47 774 323  -1
   426    901 47 323  -1
   427    186 232 593  -1
   428    898 593 232  -1
   429    367 871 699  -1
   430    367 359 871  -1
   431    190 363 547  -1
   432    96 190 547  -1
   433    951 173 955  -1
   434    951 764 173  -1
   435    174 333 383  -1
   436    174 233 333  -1
   437    774 386 859  -1
   438    49 843 175  -1
   439    161 523 695  -1
   440    202 126 749  -1
   441    465 586 27  -1
   442    498 583 55  -1
   443    642 955 173  -1
   444    383 333 765  -1
   445    764 383 765  -1
   446    642 173 789  -1
   447    764 789 173  -1
   448    537 364 852  -1
   449    531 359 152  -1
   450    47 324 124  -1
   451    707 124 324  -1
   452    186 593 270  -1
   453    481 270 593  -1
   454    909 142 857  -1
   455    311 125 843  -1
   456    498 765 333  -1
   457    843 546 175  -1
   458    37 688 603  -1
   459    498 333 503  -1
   460    707 290 124  -1
   461    503 333 233  -1
   462    82 200 810  -1
   463    298 55 343  -1
   464    498 55 765  -1
   465    655 700 956  -1
   466    283 925 460  -1
   467    283 460 821  -1
   468    702 601 309  -1
   469    498 503 186  -1
   470    305 541 476  -1
   471    47 519 774  -1
   472    321 736 102  -1
   473    134 543 411  -1
   474    642 844 955  -1
   475    707 900 290  -1
   476    503 290 900  -1
   477    55 789 764  -1
   478    55 764 765  -1
   479    145 789 921  -1
   480    921 789 298  -1
   481    55 298 789  -1
   482    145 386 387  -1
   483    387 789 145  -1
   484    386 844 387  -1
   485    126 992 251  -1
   486    749 126 251  -1
   487    36 724 870  -1
   488    972 992 126  -1
   489    972 328 992  -1
   490    716 744 371  -1
   491    567 34 238  -1
   492    567 238 724  -1
   493    532 782 717  -1
   494    717 221 532  -1
   495    713 352 469  -1
   496    663 419 79  -1
   497    235 531 272  -1
   498    462 221 34  -1
   499    213 632 834  -1
   500    152 272 531  -1
   501    851 526 335  -1
   502    11 449 585  -1
   503    476 149 305  -1
   504    251 992 699  -1
   505    367 699 992  -1
   506    208 543 69  -1
   507    36 870 871  -1
   508    36 871 462  -1
   509    992 328 367  -1
   510    759 22 639  -1
   511    367 152 359  -1
   512    526 878 568  -1
   513    948 803 225  -1
   514    80 545 143  -1
   515    531 235 532  -1
   516    465 27 771  -1
   517    362 725 427  -1
   518    870 699 871  -1
   519    221 531 532  -1
   520    359 531 221  -1
   521    118 397 297  -1
   522    469 352 889  -1
   523    434 749 251  -1
   524    870 251 699  -1
   525    434 251 870  -1
   526    881 680 517  -1
   527    346 749 434  -1
   528    590 335 722  -1
   529    590 722 159  -1
   530    492 57 199  -1
   531    628 978 412  -1
   532    78 940 865  -1
   533    282 648 943  -1
   534    680 840 517  -1
   535    421 653 886  -1
   536    374 45 116  -1
   537    20 582 293  -1
   538    568 878 35  -1
   539    335 591 851  -1
   540    335 590 591  -1
   541    526 568 335  -1
   542    722 335 568  -1
   543    878 253 35  -1
   544    822 418 110  -1
   545    420 772 182  -1
   546    959 619 841  -1
   547    923 66 101  -1
   548    709 897 1  -1
   549    671 541 926  -1
   550    323 163 911  -1
   551    450 323 911  -1
   552    569 963 355  -1
   553    625 692 985  -1
   554    143 858 80  -1
   555    479 512 864  -1
   556    724 238 592  -1
   557    86 910 444  -1
   558    494 324 901  -1
   559    494 188 324  -1
   560    486 845 487  -1
   561    975 29 417  -1
   562    334 958 851  -1
   563    591 334 851  -1
   564    414 261 222  -1
   565    455 179 637  -1
   566    818 244 349  -1
   567    373 833 542  -1
   568    754 970 858  -1
   569    161 695 423  -1
   570    691 849 915  -1
   571    930 421 909  -1
   572    257 315 962  -1
   573    284 634 1  -1
   574    960 118 297  -1
   575    518 924 564  -1
   576    86 551 314  -1
   577    494 651 898  -1
   578    494 667 651  -1
   579    623 326 29  -1
   580    580 940 78  -1
   581    268 665 56  -1
   582    582 20 279  -1
   583    25 76 874  -1
   584    777 46 742  -1
   585    687 171 733  -1
   586    979 460 394  -1
   587    203 394 460  -1
   588    123 81 836  -1
   589    544 820 814  -1
   590    76 112 299  -1
   591    43 418 822  -1
   592    623 449 326  -1
   593    922 626 280  -1
   594    554 4 455  -1
   595    626 180 75  -1
   596    20 952 698  -1
   597    20 698 279  -1
   598    26 487 845  -1
   599    356 279 495  -1
   600    211 263 731  -1
   601    121 663 540  -1
   602    606 938 101  -1
   603    158 474 896  -1
   604    926 541 306  -1
   605    26 296 995  -1
   606    26 444 296  -1
   607    353 746 991  -1
   608    353 30 746  -1
   609    862 785 516  -1
   610    381 525 727  -1
   611    958 381 727  -1
   612    771 414 731  -1
   613    181 668 400  -1
   614    942 99 433  -1
   615    127 811 927  -1
   616    407 396 810  -1
   617    845 358 897  -1
   618    845 897 709  -1
   619    910 404 538  -1
   620    561 131 875  -1
   621    727 525 902  -1
   622    669 476 813  -1
   623    781 463 980  -1
   624    697 321 322  -1
   625    18 448 369  -1
   626    894 369 448  -1
   627    217 596 149  -1
   628    497 897 357  -1
   629    468 108 271  -1
   630    521 981 272  -1
   631    950 513 514  -1
   632    715 971 416  -1
   633    18 381 136  -1
   634    41 400 668  -1
   635    87 527 666  -1
   636    2 635 827  -1
   637    133 411 607  -1
   638    778 133 607  -1
   639    167 408 712  -1
   640    10 105 181  -1
   641    319 167 479  -1
   642    144 463 549  -1
   643    679 892 777  -1
   644    162 554 558  -1
   645    291 984 286  -1
   646    964 587 312  -1
   647    607 208 629  -1
   648    682 278 92  -1
   649    827 92 278  -1
   650    327 19 586  -1
   651    787 586 19  -1
   652    983 19 108  -1
   653    983 787 19  -1
   654    181 929 362  -1
   655    860 50 407  -1
   656    939 63 153  -1
   657    796 16 679  -1
   658    929 94 362  -1
   659    877 677 622  -1
   660    641 805 587  -1
   661    689 157 812  -1
   662    241 463 781  -1
   663    280 730 257  -1
   664    249 760 701  -1
   665    227 772 993  -1
   666    799 303 853  -1
   667    588 799 853  -1
   668    382 391 96  -1
   669    802 801 65  -1
   670    620 937 747  -1
   671    688 846 604  -1
   672    310 431 601  -1
   673    147 317 895  -1
   674    417 29 114  -1
   675    267 700 655  -1
   676    357 279 644  -1
   677    656 264 728  -1
   678    946 773 524  -1
   679    946 902 773  -1
   680    989 347 681  -1
   681    595 84 21  -1
   682    975 193 623  -1
   683    538 108 391  -1
   684    538 271 108  -1
   685    263 211 562  -1
   686    644 356 742  -1
   687    375 331 888  -1
   688    415 245 734  -1
   689    852 28 454  -1
   690    628 768 156  -1
   691    552 131 329  -1
   692    606 283 821  -1
   693    902 946 202  -1
   694    152 521 272  -1
   695    328 521 152  -1
   696    869 191 118  -1
   697    353 404 30  -1
   698    496 497 667  -1
   699    606 101 605  -1
   700    52 970 754  -1
   701    723 219 949  -1
   702    805 16 587  -1
   703    396 21 809  -1
   704    763 556 243  -1
   705    32 885 83  -1
   706    239 60 592  -1
   707    199 281 927  -1
   708    264 657 747  -1
   709    623 29 975  -1
   710    253 902 471  -1
   711    976 138 303  -1
   712    257 962 64  -1
   713    509 650 889  -1
   714    10 181 400  -1
   715    799 588 704  -1
   716    235 272 675  -1
   717    253 958 727  -1
   718    253 526 958  -1
   719    580 360 95  -1
   720    334 892 67  -1
   721    994 334 67  -1
   722    199 57 281  -1
   723    69 543 134  -1
   724    33 410 675  -1
   725    33 591 410  -1
   726    972 946 524  -1
   727    328 972 524  -1
   728    769 587 304  -1
   729    230 104 723  -1
   730    365 603 123  -1
   731    399 73 426  -1
   732    411 543 607  -1
   733    271 353 740  -1
   734    404 353 271  -1
   735    596 415 98  -1
   736    230 949 263  -1
   737    811 628 412  -1
   738    192 449 77  -1
   739    930 653 421  -1
   740    770 440 15  -1
   741    851 958 526  -1
   742    615 98 415  -1
   743    557 192 77  -1
   744    548 614 154  -1
   745    996 548 154  -1
   746    946 126 202  -1
   747    946 972 126  -1
   748    473 737 194  -1
   749    958 136 381  -1
   750    958 334 136  -1
   751    223 753 510  -1
   752    332 617 329  -1
   753    18 773 381  -1
   754    18 369 773  -1
   755    708 103 456  -1
   756    195 708 456  -1
   757    551 443 708  -1
   758    854 675 272  -1
   759    981 854 272  -1
   760    848 85 51  -1
   761    723 949 230  -1
   762    538 391 910  -1
   763    429 569 829  -1
   764    152 367 328  -1
   765    196 922 280  -1
   766    686 746 136  -1
   767    18 746 350  -1
   768    18 136 746  -1
   769    129 316 143  -1
   770    942 433 615  -1
   771    31 621 622  -1
   772    723 104 664  -1
   773    995 363 191  -1
   774    461 621 943  -1
   775    104 639 292  -1
   776    159 782 532  -1
   777    439 896 493  -1
   778    16 805 67  -1
   779    891 408 511  -1
   780    412 978 645  -1
   781    743 112 472  -1
   782    374 456 739  -1
   783    374 195 456  -1
   784    180 987 413  -1
   785    401 214 79  -1
   786    523 665 268  -1
   787    773 369 524  -1
   788    894 524 369  -1
   789    894 155 328  -1
   790    981 116 854  -1
   791    155 116 981  -1
   792    850 576 394  -1
   793    691 243 556  -1
   794    237 172 291  -1
   795    748 948 225  -1
   796    734 100 415  -1
   797    899 54 417  -1
   798    516 691 862  -1
   799    71 767 511  -1
   800    241 908 435  -1
   801    918 354 132  -1
   802    244 5 867  -1
   803    428 705 999  -1
   804    176 968 41  -1
   805    832 968 176  -1
   806    79 619 536  -1
   807    132 758 428  -1
   808    132 428 999  -1
   809    51 554 637  -1
   810    500 182 502  -1
   811    321 228 736  -1
   812    832 176 758  -1
   813    181 427 668  -1
   814    495 698 88  -1
   815    615 783 942  -1
   816    100 432 783  -1
   817    16 892 679  -1
   818    832 752 968  -1
   819    752 565 732  -1
   820    544 111 385  -1
   821    442 836 662  -1
   822    415 596 217  -1
   823    44 522 231  -1
   824    113 318 165  -1
   825    370 113 165  -1
   826    965 563 935  -1
   827    380 138 976  -1
   828    884 119 618  -1
   829    939 755 168  -1
   830    788 577 150  -1
   831    542 755 153  -1
   832    245 44 231  -1
   833    305 597 306  -1
   834    278 682 954  -1
   835    61 397 118  -1
   836    50 255 215  -1
   837    372 574 527  -1
   838    512 177 72  -1
   839    267 655 877  -1
   840    42 931 341  -1
   841    632 745 216  -1
   842    729 985 555  -1
   843    569 954 963  -1
   844    963 954 682  -1
   845    655 966 877  -1
   846    986 890 89  -1
   847    855 89 890  -1
   848    268 463 144  -1
   849    777 892 46  -1
   850    664 104 292  -1
   851    768 628 301  -1
   852    528 784 579  -1
   853    740 353 837  -1
   854    579 666 527  -1
   855    68 539 788  -1
   856    996 219 528  -1
   857    660 200 299  -1
   858    380 388 935  -1
   859    539 684 242  -1
   860    151 263 949  -1
   861    205 86 206  -1
   862    662 836 302  -1
   863    550 417 54  -1
   864    517 840 653  -1
   865    341 801 802  -1
   866    865 954 569  -1
   867    834 632 904  -1
   868    202 756 902  -1
   869    414 27 261  -1
   870    802 250 760  -1
   871    278 954 865  -1
   872    834 904 508  -1
   873    114 289 417  -1
   874    362 94 829  -1
   875    92 354 624  -1
   876    516 785 156  -1
   877    978 156 785  -1
   878    795 621 31  -1
   879    676 278 109  -1
   880    162 4 554  -1
   881    10 400 594  -1
   882    453 256 564  -1
   883    490 222 876  -1
   884    490 839 222  -1
   885    646 289 811  -1
   886    480 635 317  -1
   887    689 54 646  -1
   888    17 753 224  -1
   889    746 30 350  -1
   890    451 722 803  -1
   891    819 92 827  -1
   892    11 577 788  -1
   893    153 306 542  -1
   894    401 459 59  -1
   895    143 361 63  -1
   896    758 132 354  -1
   897    711 390 240  -1
   898    164 716 317  -1
   899    480 317 716  -1
   900    215 255 882  -1
   901    479 430 177  -1
   902    979 39 821  -1
   903    191 363 61  -1
   904    895 2 676  -1
   905    278 2 827  -1
   906    676 2 278  -1
   907    646 899 289  -1
   908    536 776 801  -1
   909    819 827 635  -1
   910    807 971 808  -1
   911    580 744 581  -1
   912    164 317 147  -1
   913    317 2 895  -1
   914    317 635 2  -1
   915    422 470 778  -1
   916    927 376 6  -1
   917    360 585 192  -1
   918    674 360 192  -1
   919    110 719 969  -1
   920    983 178 447  -1
   921    585 672 11  -1
   922    282 943 795  -1
   923    355 725 362  -1
   924    80 213 8  -1
   925    64 480 716  -1
   926    962 480 64  -1
   927    744 716 164  -1
   928    39 838 482  -1
   929    578 680 881  -1
   930    736 228 881  -1
   931    78 585 360  -1
   932    672 585 78  -1
   933    995 296 363  -1
   934    404 206 30  -1
   935    158 896 337  -1
   936    355 829 569  -1
   937    51 637 275  -1
   938    557 674 192  -1
   939    295 674 557  -1
   940    212 170 309  -1
   941    993 90 227  -1
   942    998 301 127  -1
   943    504 613 924  -1
   944    714 518 315  -1
   945    714 315 257  -1
   946    206 560 448  -1
   947    604 81 123  -1
   948    847 390 473  -1
   949    322 321 530  -1
   950    196 257 719  -1
   951    75 280 626  -1
   952    302 485 58  -1
   953    61 731 397  -1
   954    794 385 111  -1
   955    729 413 985  -1
   956    931 249 674  -1
   957    931 42 249  -1
   958    826 966 654  -1
   959    790 969 64  -1
   960    719 64 969  -1
   961    619 959 544  -1
   962    64 719 257  -1
   963    119 484 618  -1
   964    800 696 508  -1
   965    499 703 53  -1
   966    309 792 506  -1
   967    622 316 700  -1
   968    930 909 757  -1
   969    170 861 730  -1
   970    482 856 405  -1
   971    687 906 171  -1
   972    88 698 806  -1
   973    943 621 795  -1
   974    40 913 973  -1
   975    689 812 54  -1
   976    447 57 983  -1
   977    446 438 100  -1
   978    235 675 410  -1
   979    797 197 561  -1
   980    776 619 385  -1
   981    776 536 619  -1
   982    794 160 776  -1
   983    624 725 945  -1
   984    151 297 263  -1
   985    92 819 566  -1
   986    285 15 690  -1
   987    690 265 285  -1
   988    769 224 641  -1
   989    252 696 800  -1
   990    50 215 396  -1
   991    474 880 244  -1
   992    159 722 451  -1
   993    159 451 782  -1
   994    332 693 421  -1
   995    899 646 54  -1
   996    557 912 295  -1
   997    201 432 640  -1
   998    397 731 263  -1
   999    879 867 880  -1
   1000    762 210 441  -1
   1001    862 645 273  -1
   1002    348 475 99  -1
   1003    808 134 411  -1
   1004    605 312 283  -1
   1005    553 306 153  -1
   1006    662 944 442  -1
   1007    453 184 431  -1
   1008    956 700 957  -1
   1009    757 909 857  -1
   1010    757 857 102  -1
   1011    453 258 184  -1
   1012    710 578 228  -1
   1013    768 348 156  -1
   1014    768 301 998  -1
   1015    350 206 448  -1
   1016    708 195 551  -1
   1017    151 73 952  -1
   1018    626 720 180  -1
   1019    354 92 832  -1
   1020    763 912 556  -1
   1021    817 912 763  -1
   1022    143 63 939  -1
   1023    178 509 889  -1
   1024    652 172 237  -1
   1025    566 564 256  -1
   1026    521 155 981  -1
   1027    521 328 155  -1
   1028    197 798 572  -1
   1029    401 841 214  -1
   1030    431 873 832  -1
   1031    573 649 888  -1
   1032    72 670 210  -1
   1033    525 773 902  -1
   1034    869 706 559  -1
   1035    65 250 802  -1
   1036    935 388 965  -1
   1037    395 563 286  -1
   1038    228 578 881  -1
   1039    358 559 293  -1
   1040    712 38 320  -1
   1041    862 691 893  -1
   1042    504 714 212  -1
   1043    504 924 714  -1
   1044    504 184 258  -1
   1045    504 601 184  -1
   1046    760 249 42  -1
   1047    89 612 425  -1
   1048    89 425 986  -1
   1049    182 772 502  -1
   1050    623 916 449  -1
   1051    684 87 666  -1
   1052    861 257 730  -1
   1053    861 714 257  -1
   1054    184 601 431  -1
   1055    966 793 90  -1
   1056    861 212 714  -1
   1057    564 924 613  -1
   1058    555 988 411  -1
   1059    729 506 792  -1
   1060    401 28 459  -1
   1061    449 916 77  -1
   1062    656 728 891  -1
   1063    934 891 728  -1
   1064    485 302 836  -1
   1065    890 73 219  -1
   1066    259 857 142  -1
   1067    842 7 226  -1
   1068    344 761 7  -1
   1069    842 344 7  -1
   1070    487 678 486  -1
   1071    637 554 455  -1
   1072    535 344 842  -1
   1073    535 842 84  -1
   1074    762 441 266  -1
   1075    140 535 84  -1
   1076    941 535 140  -1
   1077    986 204 426  -1
   1078    589 72 177  -1
   1079    589 670 72  -1
   1080    458 240 390  -1
   1081    514 610 422  -1
   1082    209 422 610  -1
   1083    562 104 230  -1
   1084    980 463 268  -1
   1085    319 71 167  -1
   1086    408 167 71  -1
   1087    866 71 319  -1
   1088    934 408 891  -1
   1089    162 831 4  -1
   1090    470 209 762  -1
   1091    470 762 266  -1
   1092    135 133 266  -1
   1093    470 266 133  -1
   1094    804 696 683  -1
   1095    750 133 135  -1
   1096    30 206 350  -1
   1097    492 983 57  -1
   1098    466 648 349  -1
   1099    555 411 750  -1
   1100    806 399 426  -1
   1101    803 568 35  -1
   1102    803 722 568  -1
   1103    738 37 603  -1
   1104    101 938 923  -1
   1105    545 129 143  -1
   1106    973 913 484  -1
   1107    255 681 254  -1
   1108    139 244 867  -1
   1109    349 244 139  -1
   1110    984 820 395  -1
   1111    815 849 77  -1
   1112    344 345 761  -1
   1113    570 501 62  -1
   1114    516 243 691  -1
   1115    957 700 129  -1
   1116    417 550 975  -1
   1117    710 25 874  -1
   1118    434 724 91  -1
   1119    346 434 91  -1
   1120    858 143 168  -1
   1121    886 332 421  -1
   1122    886 786 332  -1
   1123    787 983 492  -1
   1124    621 461 63  -1
   1125    649 905 160  -1
   1126    242 326 539  -1
   1127    556 849 691  -1
   1128    820 544 395  -1
   1129    977 242 666  -1
   1130    433 769 98  -1
   1131    986 425 204  -1
   1132    440 570 690  -1
   1133    865 109 278  -1
   1134    767 611 260  -1
   1135    254 85 882  -1
   1136    377 801 160  -1
   1137    377 160 905  -1
   1138    180 413 75  -1
   1139    778 470 133  -1
   1140    660 533 860  -1
   1141    904 632 216  -1
   1142    330 888 649  -1
   1143    131 552 875  -1
   1144    246 715 552  -1
   1145    715 339 875  -1
   1146    715 416 339  -1
   1147    163 323 774  -1
   1148    536 663 79  -1
   1149    208 69 761  -1
   1150    115 33 675  -1
   1151    349 139 466  -1
   1152    875 339 733  -1
   1153    171 875 733  -1
   1154    424 425 612  -1
   1155    413 987 985  -1
   1156    602 728 747  -1
   1157    733 339 721  -1
   1158    339 720 721  -1
   1159    339 416 720  -1
   1160    807 988 625  -1
   1161    595 643 140  -1
   1162    275 140 643  -1
   1163    880 5 244  -1
   1164    385 619 544  -1
   1165    697 228 321  -1
   1166    625 987 416  -1
   1167    888 330 794  -1
   1168    3 791 737  -1
   1169    718 791 3  -1
   1170    31 420 795  -1
   1171    69 246 761  -1
   1172    454 120 336  -1
   1173    301 628 811  -1
   1174    7 761 246  -1
   1175    153 452 553  -1
   1176    842 226 84  -1
   1177    85 254 681  -1
   1178    190 96 327  -1
   1179    703 976 303  -1
   1180    701 760 250  -1
   1181    320 430 479  -1
   1182    285 533 660  -1
   1183    836 442 928  -1
   1184    218 809 903  -1
   1185    477 218 903  -1
   1186    609 32 83  -1
   1187    131 561 329  -1
   1188    605 964 312  -1
   1189    325 508 804  -1
   1190    486 191 869  -1
   1191    53 703 640  -1
   1192    810 200 407  -1
   1193    331 142 798  -1
   1194    598 507 423  -1
   1195    598 423 695  -1
   1196    552 226 7  -1
   1197    552 329 226  -1
   1198    338 928 442  -1
   1199    626 418 720  -1
   1200    923 306 597  -1
   1201    242 684 666  -1
   1202    673 135 441  -1
   1203    146 403 265  -1
   1204    791 718 177  -1
   1205    226 617 786  -1
   1206    21 226 786  -1
   1207    191 678 995  -1
   1208    411 988 808  -1
   1209    629 868 830  -1
   1210    629 761 868  -1
   1211    822 274 43  -1
   1212    366 228 172  -1
   1213    726 725 624  -1
   1214    540 663 536  -1
   1215    890 996 855  -1
   1216    698 495 279  -1
   1217    215 882 595  -1
   1218    643 595 882  -1
   1219    203 88 828  -1
   1220    636 347 989  -1
   1221    797 798 197  -1
   1222    65 505 250  -1
   1223    826 793 966  -1
   1224    314 560 206  -1
   1225    555 692 988  -1
   1226    903 809 21  -1
   1227    46 351 742  -1
   1228    987 625 985  -1
   1229    830 630 422  -1
   1230    553 926 306  -1
   1231    530 321 857  -1
   1232    146 265 690  -1
   1233    667 497 117  -1
   1234    681 347 85  -1
   1235    662 302 823  -1
   1236    848 882 85  -1
   1237    558 51 85  -1
   1238    142 331 375  -1
   1239    520 71 866  -1
   1240    660 860 200  -1
   1241    402 473 390  -1
   1242    256 832 566  -1
   1243    632 970 52  -1
   1244    43 721 418  -1
   1245    69 134 971  -1
   1246    586 787 491  -1
   1247    63 361 621  -1
   1248    394 576 979  -1
   1249    780 398 562  -1
   1250    991 746 686  -1
   1251    801 377 65  -1
   1252    166 609 130  -1
   1253    350 448 18  -1
   1254    345 535 941  -1
   1255    345 941 148  -1
   1256    878 526 253  -1
   1257    906 377 905  -1
   1258    357 582 279  -1
   1259    489 513 950  -1
   1260    489 262 513  -1
   1261    479 864 319  -1
   1262    366 172 652  -1
   1263    967 793 389  -1
   1264    316 361 143  -1
   1265    386 774 49  -1
   1266    766 489 950  -1
   1267    883 513 262  -1
   1268    868 148 489  -1
   1269    630 868 489  -1
   1270    922 418 626  -1
   1271    742 356 777  -1
   1272    776 160 801  -1
   1273    448 560 155  -1
   1274    914 598 106  -1
   1275    914 599 598  -1
   1276    340 570 440  -1
   1277    142 421 572  -1
   1278    161 856 523  -1
   1279    656 657 264  -1
   1280    107 944 300  -1
   1281    107 442 944  -1
   1282    485 81 229  -1
   1283    313 141 457  -1
   1284    223 994 753  -1
   1285    67 805 641  -1
   1286    753 994 641  -1
   1287    610 513 72  -1
   1288    610 514 513  -1
   1289    165 24 455  -1
   1290    142 375 259  -1
   1291    492 199 491  -1
   1292    155 894 448  -1
   1293    52 745 632  -1
   1294    75 413 729  -1
   1295    562 398 104  -1
   1296    182 500 282  -1
   1297    857 259 530  -1
   1298    237 499 652  -1
   1299    936 652 499  -1
   1300    376 398 6  -1
   1301    337 231 522  -1
   1302    508 904 800  -1
   1303    874 578 710  -1
   1304    719 418 922  -1
   1305    405 507 216  -1
   1306    611 113 831  -1
   1307    1 897 497  -1
   1308    234 831 83  -1
   1309    698 952 806  -1
   1310    120 516 156  -1
   1311    926 452 671  -1
   1312    718 107 220  -1
   1313    718 3 107  -1
   1314    337 896 439  -1
   1315    26 551 444  -1
   1316    977 114 29  -1
   1317    629 422 778  -1
   1318    283 796 925  -1
   1319    802 760 42  -1
   1320    238 221 717  -1
   1321    796 128 925  -1
   1322    925 203 460  -1
   1323    800 599 913  -1
   1324    693 329 197  -1
   1325    542 938 373  -1
   1326    162 347 636  -1
   1327    149 669 44  -1
   1328    149 44 217  -1
   1329    373 938 606  -1
   1330    121 817 663  -1
   1331    306 938 542  -1
   1332    812 193 975  -1
   1333    519 47 124  -1
   1334    782 239 717  -1
   1335    238 717 239  -1
   1336    238 239 592  -1
   1337    867 669 575  -1
   1338    60 451 91  -1
   1339    651 351 481  -1
   1340    213 917 8  -1
   1341    187 466 813  -1
   1342    786 617 332  -1
   1343    948 451 803  -1
   1344    856 665 523  -1
   1345    96 547 382  -1
   1346    748 756 346  -1
   1347    756 748 471  -1
   1348    238 34 221  -1
   1349    818 349 500  -1
   1350    654 966 655  -1
   1351    567 462 34  -1
   1352    434 870 724  -1
   1353    478 269 115  -1
   1354    482 483 856  -1
   1355    794 330 160  -1
   1356    91 748 346  -1
   1357    766 950 422  -1
   1358    877 966 90  -1
   1359    261 920 876  -1
   1360    187 648 466  -1
   1361    567 36 462  -1
   1362    567 724 36  -1
   1363    750 411 133  -1
   1364    791 194 737  -1
   1365    389 793 620  -1
   1366    168 754 858  -1
   1367    649 906 905  -1
   1368    318 113 866  -1
   1369    711 37 390  -1
   1370    610 72 762  -1
   1371    210 762 72  -1
   1372    556 912 557  -1
   1373    559 486 869  -1
   1374    512 72 513  -1
   1375    864 262 318  -1
   1376    864 318 866  -1
   1377    609 83 636  -1
   1378    850 828 204  -1
   1379    511 767 735  -1
   1380    260 735 767  -1
   1381    570 13 146  -1
   1382    403 146 13  -1
   1383    410 591 590  -1
   1384    342 657 656  -1
   1385    117 651 667  -1
   1386    607 543 208  -1
   1387    65 377 687  -1
   1388    130 947 166  -1
   1389    942 432 704  -1
   1390    771 731 488  -1
   1391    530 0 322  -1
   1392    95 249 790  -1
   1393    464 908 241  -1
   1394    58 229 661  -1
   1395    837 353 991  -1
   1396    644 742 117  -1
   1397    620 826 937  -1
   1398    501 584 62  -1
   1399    591 33 334  -1
   1400    664 22 528  -1
   1401    971 134 808  -1
   1402    783 432 942  -1
   1403    887 658 571  -1
   1404    116 155 560  -1
   1405    403 13 658  -1
   1406    887 227 342  -1
   1407    640 438 53  -1
   1408    189 302 58  -1
   1409    973 484 119  -1
   1410    58 485 229  -1
   1411    837 608 207  -1
   1412    983 468 509  -1
   1413    39 576 838  -1
   1414    589 816 670  -1
   1415    934 38 712  -1
   1416    351 478 270  -1
   1417    45 270 116  -1
   1418    166 32 609  -1
   1419    282 349 648  -1
   1420    537 138 364  -1
   1421    604 603 688  -1
   1422    375 888 794  -1
   1423    438 236 936  -1
   1424    250 505 822  -1
   1425    524 894 328  -1
   1426    422 630 766  -1
   1427    420 182 795  -1
   1428    435 105 436  -1
   1429    620 793 826  -1
   1430    262 864 883  -1
   1431    704 432 201  -1
   1432    713 768 352  -1
   1433    95 790 371  -1
   1434    967 227 90  -1
   1435    365 738 603  -1
   1436    248 604 846  -1
   1437    421 693 572  -1
   1438    857 321 102  -1
   1439    652 409 366  -1
   1440    312 16 796  -1
   1441    865 940 109  -1
   1442    704 201 799  -1
   1443    291 172 697  -1
   1444    593 898 481  -1
   1445    203 495 88  -1
   1446    640 703 201  -1
   1447    319 864 866  -1
   1448    157 893 915  -1
   1449    482 838 483  -1
   1450    955 49 175  -1
   1451    75 729 792  -1
   1452    349 282 500  -1
   1453    379 70 220  -1
   1454    519 311 774  -1
   1455    809 810 396  -1
   1456    365 123 928  -1
   1457    783 415 100  -1
   1458    340 122 501  -1
   1459    378 515 8  -1
   1460    3 928 338  -1
   1461    220 816 589  -1
   1462    718 220 589  -1
   1463    418 721 720  -1
   1464    443 26 845  -1
   1465    443 551 26  -1
   1466    123 836 928  -1
   1467    671 452 187  -1
   1468    264 747 728  -1
   1469    655 956 515  -1
   1470    38 728 602  -1
   1471    38 602 932  -1
   1472    589 177 718  -1
   1473    665 856 483  -1
   1474    704 99 942  -1
   1475    46 478 351  -1
   1476    45 374 739  -1
   1477    687 377 906  -1
   1478    384 186 739  -1
   1479    523 144 695  -1
   1480    673 750 135  -1
   1481    647 424 919  -1
   1482    695 144 106  -1
   1483    847 602 747  -1
   1484    847 194 602  -1
   1485    614 579 527  -1
   1486    307 113 370  -1
   1487    748 225 471  -1
   1488    78 360 580  -1
   1489    471 902 756  -1
   1490    467 515 378  -1
   1491    657 342 389  -1
   1492    620 747 657  -1
   1493    93 725 918  -1
   1494    621 316 622  -1
   1495    361 316 621  -1
   1496    825 122 74  -1
   1497    629 208 761  -1
   1498    62 500 502  -1
   1499    218 840 680  -1
   1500    501 122 825  -1
   1501    771 27 414  -1
   1502    1 634 103  -1
   1503    877 90 993  -1
   1504    586 920 27  -1
   1505    772 677 993  -1
   1506    993 677 877  -1
   1507    481 351 270  -1
   1508    8 129 545  -1
   1509    956 129 8  -1
   1510    818 500 62  -1
   1511    158 880 474  -1
   1512    867 5 880  -1
   1513    777 796 679  -1
   1514    407 200 860  -1
   1515    766 630 489  -1
   1516    672 577 11  -1
   1517    669 149 476  -1
   1518    929 181 294  -1
   1519    295 912 121  -1
   1520    777 128 796  -1
   1521    632 213 970  -1
   1522    450 667 494  -1
   1523    511 408 71  -1
   1524    481 898 651  -1
   1525    478 116 270  -1
   1526    273 785 862  -1
   1527    773 525 381  -1
   1528    23 649 573  -1
   1529    257 196 280  -1
   1530    990 243 516  -1
   1531    322 984 291  -1
   1532    0 984 322  -1
   1533    664 528 219  -1
   1534    199 490 491  -1
   1535    825 584 501  -1
   1536    688 37 711  -1
   1537    150 929 294  -1
   1538    148 941 24  -1
   1539    252 913 40  -1
   1540    825 474 584  -1
   1541    293 357 358  -1
   1542    794 776 385  -1
   1543    480 962 529  -1
   1544    700 316 129  -1
   1545    792 730 280  -1
   1546    864 137 883  -1
   1547    891 511 141  -1
   1548    533 265 457  -1
   1549    839 490 6  -1
   1550    447 276 281  -1
   1551    505 274 822  -1
   1552    889 276 178  -1
   1553    178 276 447  -1
   1554    117 497 644  -1
   1555    493 112 439  -1
   1556    398 839 6  -1
   1557    410 590 235  -1
   1558    644 497 357  -1
   1559    490 199 927  -1
   1560    927 6 490  -1
   1561    875 552 715  -1
   1562    452 648 187  -1
   1563    370 4 307  -1
   1564    304 587 66  -1
   1565    207 608 198  -1
   1566    935 138 380  -1
   1567    585 449 192  -1
   1568    102 517 930  -1
   1569    115 269 33  -1
   1570    846 378 8  -1
   1571    433 475 769  -1
   1572    382 444 910  -1
   1573    382 296 444  -1
   1574    382 547 296  -1
   1575    211 780 562  -1
   1576    1 497 496  -1
   1577    508 696 804  -1
   1578    888 331 573  -1
   1579    0 820 984  -1
   1580    288 87 684  -1
   1581    382 910 391  -1
   1582    741 506 379  -1
   1583    622 700 267  -1
   1584    380 499 388  -1
   1585    686 510 608  -1
   1586    781 464 241  -1
   1587    631 940 581  -1
   1588    740 207 650  -1
   1589    287 68 908  -1
   1590    522 158 337  -1
   1591    841 619 214  -1
   1592    156 978 628  -1
   1593    207 198 469  -1
   1594    50 947 255  -1
   1595    588 99 704  -1
   1596    216 507 904  -1
   1597    362 829 355  -1
   1598    911 163 284  -1
   1599    728 38 934  -1
   1600    294 105 435  -1
   1601    437 588 336  -1
   1602    77 916 815  -1
   1603    599 800 507  -1
   1604    847 747 458  -1
   1605    588 454 336  -1
   1606    484 913 599  -1
   1607    50 396 407  -1
   1608    243 817 763  -1
   1609    694 375 814  -1
   1610    814 375 111  -1
   1611    299 112 493  -1
   1612    111 544 814  -1
   1613    249 701 790  -1
   1614    838 576 483  -1
   1615    665 483 576  -1
   1616    576 393 665  -1
   1617    610 762 209  -1
   1618    853 303 537  -1
   1619    631 581 147  -1
   1620    819 480 529  -1
   1621    309 506 741  -1
   1622    641 587 769  -1
   1623    398 392 104  -1
   1624    893 691 915  -1
   1625    358 845 486  -1
   1626    660 15 285  -1
   1627    392 639 104  -1
   1628    309 741 702  -1
   1629    54 812 550  -1
   1630    205 404 910  -1
   1631    563 138 935  -1
   1632    364 563 59  -1
   1633    530 259 694  -1
   1634    530 694 0  -1
   1635    688 779 378  -1
   1636    276 998 127  -1
   1637    179 455 24  -1
   1638    584 474 244  -1
   1639    455 4 370  -1
   1640    558 554 51  -1
   1641    715 246 69  -1
   1642    952 73 399  -1
   1643    73 890 986  -1
   1644    943 648 461  -1
   1645    222 839 616  -1
   1646    876 920 491  -1
   1647    261 876 222  -1
   1648    663 817 419  -1
   1649    229 633 445  -1
   1650    775 97 185  -1
   1651    836 81 485  -1
   1652    185 97 933  -1
   1653    59 563 395  -1
   1654    292 22 664  -1
   1655    214 619 79  -1
   1656    56 647 919  -1
   1657    12 638 919  -1
   1658    919 424 12  -1
   1659    12 424 614  -1
   1660    614 574 12  -1
   1661    12 835 781  -1
   1662    781 638 12  -1
   1663    919 638 781  -1
   1664    919 781 980  -1
   1665    78 865 569  -1
   1666    444 551 86  -1
   1667    27 920 261  -1
   1668    769 304 98  -1
   1669    101 66 964  -1
   1670    231 9 446  -1
   1671    66 587 964  -1
   1672    364 138 563  -1
   1673    841 401 59  -1
   1674    364 59 459  -1
   1675    459 852 364  -1
   1676    95 371 744  -1
   1677    371 790 64  -1
   1678    959 841 59  -1
   1679    441 816 70  -1
   1680    604 123 603  -1
   1681    797 23 573  -1
   1682    941 179 24  -1
   1683    170 730 792  -1
   1684    986 426 73  -1
   1685    128 495 203  -1
   1686    512 137 864  -1
   1687    436 105 10  -1
   1688    150 94 929  -1
   1689    325 804 248  -1
   1690    572 798 142  -1
   1691    237 291 388  -1
   1692    804 81 604  -1
   1693    804 683 81  -1
   1694    815 915 849  -1
   1695    797 561 907  -1
   1696    292 639 22  -1
   1697    811 412 646  -1
   1698    287 685 68  -1
   1699    545 80 8  -1
   1700    835 372 751  -1
   1701    80 970 213  -1
   1702    846 834 325  -1
   1703    917 834 846  -1
   1704    899 417 289  -1
   1705    702 183 310  -1
   1706    683 696 252  -1
   1707    92 624 945  -1
   1708    4 831 307  -1
   1709    412 645 646  -1
   1710    646 645 689  -1
   1711    673 441 70  -1
   1712    70 506 673  -1
   1713    989 681 130  -1
   1714    636 989 609  -1
   1715    609 989 130  -1
   1716    453 564 258  -1
   1717    564 613 258  -1
   1718    468 271 740  -1
   1719    467 779 240  -1
   1720    847 458 390  -1
   1721    110 418 719  -1
   1722    826 654 467  -1
   1723    240 826 467  -1
   1724    52 405 745  -1
   1725    22 784 528  -1
   1726    20 151 952  -1
   1727    109 631 676  -1
   1728    109 940 631  -1
   1729    17 348 768  -1
   1730    281 57 447  -1
   1731    877 622 267  -1
   1732    808 988 807  -1
   1733    874 82 406  -1
   1734    406 578 874  -1
   1735    491 787 492  -1
   1736    810 218 82  -1
   1737    82 218 406  -1
   1738    215 21 396  -1
   1739    380 703 499  -1
   1740    215 595 21  -1
   1741    388 499 237  -1
   1742    166 50 860  -1
   1743    616 211 731  -1
   1744    327 465 190  -1
   1745    491 490 876  -1
   1746    616 839 780  -1
   1747    211 616 780  -1
   1748    439 112 743  -1
   1749    912 817 121  -1
   1750    991 686 608  -1
   1751    69 971 715  -1
   1752    829 94 429  -1
   1753    963 945 355  -1
   1754    581 744 164  -1
   1755    598 695 106  -1
   1756    336 120 156  -1
   1757    476 541 671  -1
   1758    245 446 734  -1
   1759    813 476 671  -1
   1760    701 969 790  -1
   1761    915 193 157  -1
   1762    405 423 507  -1
   1763    665 393 56  -1
   1764    573 331 798  -1
   1765    472 409 743  -1
   1766    409 236 743  -1
   1767    415 217 44  -1
   1768    44 245 415  -1
   1769    711 779 688  -1
   1770    559 706 293  -1
   1771    797 907 23  -1
   1772    685 539 68  -1
   1773    850 394 828  -1
   1774    53 936 499  -1
   1775    438 936 53  -1
   1776    117 351 651  -1
   1777    141 313 659  -1
   1778    689 645 157  -1
   1779    1 496 284  -1
   1780    299 200 76  -1
   1781    219 73 949  -1
   1782    904 507 800  -1
   1783    821 460 979  -1
   1784    852 454 853  -1
   1785    853 537 852  -1
   1786    329 617 226  -1
   1787    515 654 655  -1
   1788    692 625 988  -1
   1789    807 625 416  -1
   1790    463 241 549  -1
   1791    437 348 99  -1
   1792    17 475 348  -1
   1793    653 840 477  -1
   1794    637 179 275  -1
   1795    196 719 922  -1
   1796    329 693 332  -1
   1797    295 931 674  -1
   1798    194 847 473  -1
   1799    674 249 95  -1
   1800    360 674 95  -1
   1801    564 315 518  -1
   1802    737 473 402  -1
   1803    891 141 656  -1
   1804    141 659 656  -1
   1805    858 970 80  -1
   1806    597 305 596  -1
   1807    98 304 596  -1
   1808    596 304 597  -1
   1809    557 849 556  -1
   1810    121 931 295  -1
   1811    341 931 121  -1
   1812    15 440 690  -1
   1813    714 924 518  -1
   1814    740 837 207  -1
   1815    301 811 127  -1
   1816    809 218 810  -1
   1817    277 17 713  -1
   1818    887 659 658  -1
   1819    277 753 17  -1
   1820    510 753 277  -1
   1821    467 654 515  -1
   1822    990 516 120  -1
   1823    990 28 997  -1
   1824    990 120 454  -1
   1825    828 88 204  -1
   1826    713 17 768  -1
   1827    690 570 146  -1
   1828    74 122 770  -1
   1829    340 440 770  -1
   1830    770 122 340  -1
   1831    907 561 875  -1
   1832    116 478 115  -1
   1833    334 33 892  -1
   1834    631 147 895  -1
   1835    635 480 819  -1
   1836    676 631 895  -1
   1837    581 164 147  -1
   1838    932 602 194  -1
   1839    930 517 653  -1
   1840    160 330 649  -1
   1841    688 378 846  -1
   1842    527 87 372  -1
   1843    8 917 846  -1
   1844    806 952 399  -1
   1845    770 15 299  -1
   1846    734 446 100  -1
   1847    299 74 770  -1
   1848    879 880 522  -1
   1849    44 879 522  -1
   1850    522 880 158  -1
   1851    645 978 273  -1
   1852    528 579 548  -1
   1853    996 528 548  -1
   1854    830 422 629  -1
   1855    629 778 607  -1
   1856    562 230 263  -1
   1857    815 916 915  -1
   1858    915 916 193  -1
   1859    974 885 32  -1
   1860    190 488 363  -1
   1861    889 352 276  -1
   1862    83 831 162  -1
   1863    307 831 113  -1
   1864    171 906 907  -1
   1865    907 906 23  -1
   1866    23 906 649  -1
   1867    299 15 660  -1
   1868    493 74 299  -1
   1869    903 653 477  -1
   1870    614 527 574  -1
   1871    684 751 288  -1
   1872    685 751 684  -1
   1873    303 138 537  -1
   1874    976 703 380  -1
   1875    394 203 828  -1
   1876    376 392 398  -1
   1877    337 439 231  -1
   1878    745 405 216  -1
   1879    166 947 50  -1
   1880    868 630 830  -1
   1881    535 345 344  -1
   1882    868 345 148  -1
   1883    281 276 127  -1
   1884    937 240 458  -1
   1885    937 826 240  -1
   1886    747 937 458  -1
   1887    502 227 571  -1
   1888    659 313 658  -1
   1889    570 62 13  -1
   1890    571 227 887  -1
   1891    475 224 769  -1
   1892    17 224 475  -1
   1893    510 277 469  -1
   1894    157 645 862  -1
   1895    157 862 893  -1
   1896    287 751 685  -1
   1897    896 74 493  -1
   1898    990 454 28  -1
   1899    853 454 588  -1
   1900    709 443 845  -1
   1901    406 218 680  -1
   1902    401 419 28  -1
   1903    650 469 889  -1
   1904    24 262 489  -1
   1905    76 200 82  -1
   1906    874 76 82  -1
   1907    114 639 392  -1
   1908    639 114 169  -1
   1909    169 759 639  -1
   1910    326 449 11  -1
   1911    788 539 326  -1
   1912    326 11 788  -1
   1913    425 424 647  -1
   1914    366 308 25  -1
   1915    472 308 409  -1
   1916    236 409 652  -1
   1917    652 936 236  -1
   1918    740 650 468  -1
   1919    509 468 650  -1
   1920    231 446 245  -1
   1921    791 430 194  -1
   1922    784 666 579  -1
   1923    194 430 320  -1
   1924    320 38 932  -1
   1925    784 169 666  -1
   1926    932 194 320  -1
   1927    788 294 68  -1
   1928    464 751 287  -1
   1929    908 68 435  -1
   1930    287 908 464  -1
   1931    685 684 539  -1
   1932    68 294 435  -1
   1933    818 584 244  -1
   1934    640 432 100  -1
   1935    415 783 615  -1
   1936    738 737 402  -1
   1937    297 397 263  -1
   1938    363 488 61  -1
   1939    457 403 313  -1
   1940    13 571 658  -1
   1941    313 403 658  -1
   1942    502 772 227  -1
   1943    457 265 403  -1
   1944    487 26 995  -1
   1945    995 678 487  -1
   1946    729 555 673  -1
   1947    673 555 750  -1
   1948    489 148 24  -1
   1949    165 262 24  -1
   1950    165 318 262  -1
   1951    653 903 886  -1
   1952    21 786 903  -1
   1953    886 903 786  -1
   1954    977 666 169  -1
   1955    759 169 784  -1
   1956    534 32 166  -1
   1957    121 540 341  -1
   1958    393 576 850  -1
   1959    811 376 927  -1
   1960    875 171 907  -1
   1961    193 916 623  -1
   1962    70 816 220  -1
   1963    860 533 166  -1
   1964    166 533 534  -1
   1965    533 457 534  -1
   1966    534 457 735  -1
   1967    735 457 141  -1
   1968    974 534 260  -1
   1969    534 735 260  -1
   1970    466 575 813  -1
   1971    466 139 575  -1
   1972    28 419 997  -1
   1973    928 737 365  -1
   1974    365 737 738  -1
   1975    219 996 890  -1
   1976    129 956 957  -1
   1977    89 855 612  -1
   1978    855 996 154  -1
   1979    723 664 219  -1
   1980    548 579 614  -1
   1981    636 83 162  -1
   1982    974 32 534  -1
   1983    974 260 885  -1
   1984    672 429 577  -1
   1985    78 429 672  -1
   1986    577 94 150  -1
   1987    429 94 577  -1
   1988    281 127 927  -1
   1989    100 438 640  -1
   1990    9 438 446  -1
   1991    9 236 438  -1
   1992    204 806 426  -1
   1993    204 961 850  -1
   1994    204 425 961  -1
   1995    207 469 650  -1
